<svg xmlns="http://www.w3.org/2000/svg" xmlns:xlink="http://www.w3.org/1999/xlink" width="1024" zoomAndPan="magnify" viewBox="0 0 768 767.999994" height="1024" preserveAspectRatio="xMidYMid meet" version="1.0"><defs><clipPath id="7ed90f607a"><path d="M 184 494 L 612 494 L 612 643.800781 L 184 643.800781 Z M 184 494 " clip-rule="nonzero"/></clipPath><clipPath id="a7ed18cf2d"><path d="M 243 76.800781 L 517 76.800781 L 517 131 L 243 131 Z M 243 76.800781 " clip-rule="nonzero"/></clipPath><clipPath id="faad0683eb"><path d="M 105 76.800781 L 662 76.800781 L 662 643.800781 L 105 643.800781 Z M 105 76.800781 " clip-rule="nonzero"/></clipPath></defs><path fill="#cc69bb" d="M 186.351562 568.5 C 185.101562 567.410156 184.011719 566.320312 182.765625 565.070312 C 183.855469 566.320312 185.101562 567.410156 186.351562 568.5 Z M 186.351562 568.5 " fill-opacity="1" fill-rule="nonzero"/><path fill="#cc69bb" d="M 179.960938 562.421875 C 178.867188 561.328125 177.621094 560.082031 176.53125 558.992188 C 177.621094 560.082031 178.710938 561.328125 179.960938 562.421875 Z M 179.960938 562.421875 " fill-opacity="1" fill-rule="nonzero"/><path fill="#cc69bb" d="M 161.878906 542.933594 C 160.785156 541.6875 159.851562 540.441406 158.761719 539.191406 C 159.851562 540.441406 160.785156 541.6875 161.878906 542.933594 Z M 161.878906 542.933594 " fill-opacity="1" fill-rule="nonzero"/><path fill="#cc69bb" d="M 156.265625 536.074219 C 155.332031 534.828125 154.238281 533.582031 153.304688 532.332031 C 154.238281 533.582031 155.332031 534.828125 156.265625 536.074219 Z M 156.265625 536.074219 " fill-opacity="1" fill-rule="nonzero"/><path fill="#cc69bb" d="M 173.722656 556.183594 C 172.632812 554.9375 171.542969 553.847656 170.449219 552.601562 C 171.386719 553.847656 172.632812 554.9375 173.722656 556.183594 Z M 173.722656 556.183594 " fill-opacity="1" fill-rule="nonzero"/><path fill="#cc69bb" d="M 167.644531 549.636719 C 166.554688 548.390625 165.464844 547.300781 164.371094 546.050781 C 165.464844 547.300781 166.554688 548.390625 167.644531 549.636719 Z M 167.644531 549.636719 " fill-opacity="1" fill-rule="nonzero"/><path fill="#cc69bb" d="M 150.964844 529.058594 C 150.03125 527.8125 149.097656 526.410156 148.160156 525.160156 C 148.941406 526.566406 149.875 527.8125 150.964844 529.058594 Z M 150.964844 529.058594 " fill-opacity="1" fill-rule="nonzero"/><path fill="#cc69bb" d="M 659.742188 394.050781 C 658.808594 402.46875 657.40625 410.734375 655.691406 418.996094 C 657.40625 410.734375 658.808594 402.46875 659.742188 394.050781 Z M 659.742188 394.050781 " fill-opacity="1" fill-rule="nonzero"/><path fill="#cc69bb" d="M 614.539062 516.898438 C 613.605469 518.457031 612.511719 519.859375 611.421875 521.421875 C 612.511719 519.859375 613.605469 518.300781 614.539062 516.898438 Z M 614.539062 516.898438 " fill-opacity="1" fill-rule="nonzero"/><path fill="#cc69bb" d="M 653.664062 427.726562 C 653.039062 430.0625 652.417969 432.402344 651.792969 434.742188 C 652.417969 432.402344 653.039062 430.0625 653.664062 427.726562 Z M 653.664062 427.726562 " fill-opacity="1" fill-rule="nonzero"/><path fill="#cc69bb" d="M 660.523438 385.789062 C 660.210938 388.441406 660.054688 391.089844 659.742188 393.894531 C 660.054688 391.089844 660.367188 388.441406 660.523438 385.789062 Z M 660.523438 385.789062 " fill-opacity="1" fill-rule="nonzero"/><path fill="#cc69bb" d="M 651.636719 435.519531 C 651.015625 438.015625 650.234375 440.664062 649.457031 443.160156 C 650.234375 440.664062 650.859375 438.171875 651.636719 435.519531 Z M 651.636719 435.519531 " fill-opacity="1" fill-rule="nonzero"/><path fill="#cc69bb" d="M 617.65625 511.910156 C 616.722656 513.3125 615.785156 514.714844 614.851562 516.277344 C 615.941406 514.871094 616.878906 513.46875 617.65625 511.910156 Z M 617.65625 511.910156 " fill-opacity="1" fill-rule="nonzero"/><path fill="#cc69bb" d="M 655.691406 418.996094 C 655.222656 421.488281 654.597656 424.140625 653.976562 426.632812 C 654.445312 424.140625 655.066406 421.644531 655.691406 418.996094 Z M 655.691406 418.996094 " fill-opacity="1" fill-rule="nonzero"/><g clip-path="url(#7ed90f607a)"><path fill="#cc69bb" d="M 558.269531 501.933594 C 553.4375 500.996094 550.785156 502.710938 545.332031 500.839844 C 541.746094 499.59375 542.058594 498.503906 537.535156 496.789062 C 532.394531 494.605469 528.027344 494.449219 525.378906 494.292969 C 520.859375 494.136719 512.753906 493.671875 511.507812 496.945312 C 510.257812 500.0625 516.339844 503.648438 514.933594 507.703125 C 514.46875 508.949219 513.375 510.039062 510.101562 511.441406 C 503.867188 514.25 499.035156 514.714844 495.605469 515.339844 C 488.75 516.742188 488.4375 519.238281 477.992188 524.382812 C 473.941406 526.410156 467.703125 529.058594 459.445312 531.242188 C 463.027344 534.828125 467.082031 538.726562 471.445312 542.464844 C 479.394531 549.171875 487.035156 554.46875 494.046875 558.679688 C 475.1875 565.226562 466.300781 563.042969 461.625 559.460938 C 459.601562 557.898438 456.328125 554.316406 450.402344 552.289062 C 449 551.820312 444.480469 550.417969 439.335938 550.886719 C 429.671875 551.664062 427.332031 558.210938 414.238281 565.539062 C 406.757812 569.75 400.523438 571.464844 394.753906 573.023438 C 380.414062 576.917969 373.554688 575.515625 369.972656 574.113281 C 367.320312 573.023438 364.671875 571.464844 364.671875 571.464844 C 359.996094 568.65625 359.058594 566.476562 356.410156 564.605469 C 349.550781 559.613281 339.730469 562.265625 338.796875 562.578125 C 337.238281 563.042969 333.339844 565.539062 325.703125 570.683594 C 321.648438 573.335938 317.753906 575.984375 312.453125 577.074219 C 310.894531 577.386719 308.710938 577.542969 306.375 576.765625 C 305.4375 576.453125 302.476562 575.359375 301.855469 573.179688 C 301.230469 571.308594 302.164062 568.8125 308.554688 562.265625 C 315.882812 554.78125 317.128906 555.40625 320.246094 551.664062 C 326.328125 544.027344 328.351562 532.488281 324.457031 529.214844 C 322.273438 527.34375 319.78125 529.371094 316.972656 526.722656 C 314.480469 524.226562 315.101562 521.109375 312.140625 518.613281 C 310.425781 517.210938 308.402344 516.898438 306.996094 516.585938 C 289.851562 513.9375 287.203125 510.976562 278.628906 512.378906 C 270.835938 513.625 272.859375 516.121094 262.730469 518.613281 C 255.871094 520.328125 253.53125 519.550781 239.347656 520.640625 C 229.839844 521.421875 225.164062 521.886719 222.980469 522.511719 C 215.1875 525.316406 213.785156 529.058594 199.445312 538.726562 C 194.769531 541.84375 192.429688 543.402344 191.183594 544.179688 C 186.351562 546.832031 184.792969 546.832031 184.324219 548.546875 C 182.921875 552.132812 187.910156 558.679688 193.988281 561.796875 C 198.976562 564.449219 203.183594 563.824219 203.339844 565.226562 C 203.496094 566.785156 198.351562 568.96875 193.363281 569.90625 C 191.648438 570.214844 190.089844 570.371094 188.53125 570.527344 C 238.878906 616.050781 305.4375 643.800781 378.699219 643.800781 C 475.34375 643.800781 560.605469 595.316406 611.890625 521.574219 C 585.234375 518.457031 574.792969 514.25 570.894531 510.195312 C 568.867188 508.324219 564.972656 503.179688 558.269531 501.933594 Z M 558.269531 501.933594 " fill-opacity="1" fill-rule="nonzero"/></g><path fill="#cc69bb" d="M 620.460938 419.308594 C 612.824219 419.464844 610.019531 423.203125 606.121094 420.867188 C 602.535156 418.839844 603.316406 414.785156 600.511719 406.523438 C 595.988281 393.429688 591.003906 394.050781 590.691406 386.726562 C 590.378906 377.996094 597.550781 375.96875 598.328125 365.679688 C 593.339844 366.925781 588.039062 368.328125 582.117188 369.886719 C 565.28125 374.71875 553.902344 378.929688 534.730469 386.257812 C 501.6875 398.730469 494.828125 404.652344 476.589844 412.757812 C 476.589844 412.914062 476.746094 412.914062 476.746094 413.070312 C 480.332031 416.65625 488.28125 408.707031 496.074219 412.292969 C 501.6875 414.941406 500.4375 420.242188 506.984375 423.515625 C 510.726562 425.230469 512.753906 424.296875 520.078125 424.765625 C 528.964844 425.230469 539.25 427.257812 539.25 428.816406 C 539.25 431.46875 510.101562 428.347656 490.617188 443.003906 C 483.605469 448.148438 479.707031 451.109375 477.214844 456.878906 C 477.214844 457.035156 477.058594 457.191406 477.058594 457.347656 C 477.371094 457.347656 477.679688 457.347656 477.992188 457.347656 C 484.851562 457.65625 485.628906 456.566406 494.515625 456.097656 C 507.765625 455.320312 515.402344 454.851562 523.039062 458.75 C 528.964844 461.710938 527.871094 463.894531 535.667969 467.949219 C 543.304688 471.84375 544.707031 470.128906 551.097656 473.871094 C 558.425781 478.390625 559.203125 482.445312 564.503906 482.757812 C 565.90625 482.914062 566.21875 482.601562 574.011719 480.417969 C 580.714844 478.546875 581.804688 477.457031 584.144531 477.769531 C 588.664062 478.390625 591.46875 483.382812 592.871094 485.875 C 592.871094 485.875 600.199219 498.191406 618.125 511.753906 C 631.53125 490.550781 642.285156 467.480469 649.765625 443.003906 C 646.804688 439.105469 647.429688 435.832031 644.46875 431.15625 C 639.167969 423.671875 628.878906 419.152344 620.460938 419.308594 Z M 620.460938 419.308594 " fill-opacity="1" fill-rule="nonzero"/><path fill="#cc69bb" d="M 645.089844 349.308594 C 645.402344 352.425781 646.339844 356.011719 648.050781 359.597656 C 650.703125 364.898438 653.039062 365.679688 657.09375 370.667969 C 658.964844 373.003906 660.210938 375.03125 661.144531 376.902344 C 660.988281 379.710938 660.835938 382.515625 660.523438 385.164062 C 661.300781 376.902344 661.613281 368.640625 661.613281 360.222656 C 661.613281 352.117188 661.300781 344.007812 660.523438 335.902344 C 656.46875 339.332031 654.132812 341.980469 650.078125 345.257812 C 648.519531 346.816406 646.804688 348.0625 645.089844 349.308594 Z M 645.089844 349.308594 " fill-opacity="1" fill-rule="nonzero"/><path fill="#cc69bb" d="M 139.585938 512.691406 C 140.054688 513.3125 140.367188 513.9375 140.835938 514.5625 C 140.367188 513.9375 139.898438 513.3125 139.585938 512.691406 Z M 139.585938 512.691406 " fill-opacity="1" fill-rule="nonzero"/><path fill="#cc69bb" d="M 145.667969 521.886719 C 144.730469 520.484375 143.796875 519.238281 142.859375 517.835938 C 143.953125 519.238281 144.730469 520.640625 145.667969 521.886719 Z M 145.667969 521.886719 " fill-opacity="1" fill-rule="nonzero"/><path fill="#cc69bb" d="M 542.371094 129.027344 C 544.707031 130.742188 547.046875 132.457031 549.226562 134.171875 C 547.046875 132.457031 544.707031 130.742188 542.371094 129.027344 Z M 542.371094 129.027344 " fill-opacity="1" fill-rule="nonzero"/><path fill="#cc69bb" d="M 525.847656 118.113281 C 528.339844 119.671875 530.835938 121.230469 533.328125 122.789062 C 530.835938 121.230469 528.339844 119.671875 525.847656 118.113281 Z M 525.847656 118.113281 " fill-opacity="1" fill-rule="nonzero"/><path fill="#cc69bb" d="M 534.574219 123.726562 C 537.070312 125.441406 539.5625 127 542.058594 128.871094 C 539.5625 127 537.070312 125.441406 534.574219 123.726562 Z M 534.574219 123.726562 " fill-opacity="1" fill-rule="nonzero"/><path fill="#cc69bb" d="M 555.929688 139.316406 C 555.773438 139.160156 555.773438 139.160156 555.617188 139.003906 C 555.617188 139.160156 555.773438 139.160156 555.929688 139.316406 Z M 555.929688 139.316406 " fill-opacity="1" fill-rule="nonzero"/><g clip-path="url(#a7ed18cf2d)"><path fill="#cc69bb" d="M 292.191406 107.980469 C 325.859375 102.054688 335.054688 94.261719 354.382812 99.09375 C 364.359375 101.585938 362.800781 103.925781 379.636719 112.1875 C 418.761719 131.050781 451.492188 130.585938 458.820312 130.429688 C 468.796875 130.117188 477.523438 129.804688 488.4375 126.21875 C 501.53125 121.855469 505.425781 116.867188 516.648438 112.8125 C 475.808594 89.894531 428.582031 76.800781 378.386719 76.800781 C 329.445312 76.800781 283.460938 89.273438 243.246094 111.097656 C 256.804688 114.058594 273.015625 111.410156 292.191406 107.980469 Z M 292.191406 107.980469 " fill-opacity="1" fill-rule="nonzero"/></g><path fill="#cc69bb" d="M 554.214844 137.910156 C 552.96875 136.976562 551.878906 136.042969 550.628906 135.105469 C 551.722656 136.042969 552.96875 136.976562 554.214844 137.910156 Z M 554.214844 137.910156 " fill-opacity="1" fill-rule="nonzero"/><path fill="#cc69bb" d="M 193.988281 253.898438 C 208.953125 253.433594 230.773438 254.679688 257.742188 262.785156 C 255.246094 253.742188 254.625 246.261719 254.46875 240.960938 C 254.3125 236.4375 254.78125 234.878906 255.871094 233.945312 C 259.300781 231.292969 265.378906 238.308594 276.757812 240.335938 C 278.472656 240.648438 287.824219 242.207031 296.867188 238.152344 C 307.933594 233.164062 306.0625 225.527344 314.636719 222.410156 C 327.730469 217.574219 339.730469 233.007812 349.394531 226.773438 C 352.046875 225.058594 353.761719 222.253906 354.695312 220.070312 C 354.226562 218.511719 353.449219 216.953125 352.203125 215.238281 C 351.578125 214.300781 346.121094 207.285156 337.859375 206.507812 C 332.25 205.882812 329.597656 208.691406 326.015625 206.664062 C 322.429688 204.636719 320.246094 198.867188 321.804688 194.660156 C 323.675781 189.824219 329.445312 190.449219 338.796875 185.304688 C 340.355469 184.523438 346.746094 180.941406 350.953125 176.574219 C 350.175781 176.105469 349.394531 175.640625 348.617188 175.171875 C 350.019531 174.082031 351.890625 172.832031 354.382812 171.898438 C 354.851562 170.804688 355.164062 169.714844 355.007812 168.625 C 354.382812 161.921875 341.289062 158.023438 336.613281 156.621094 C 314.011719 149.605469 301.699219 158.179688 278.628906 155.996094 C 273.328125 155.527344 256.648438 153.8125 240.90625 143.367188 C 232.175781 137.601562 227.035156 131.207031 222.355469 123.882812 C 225.628906 121.699219 228.902344 119.671875 232.175781 117.644531 C 179.179688 149.761719 137.40625 198.710938 114.492188 257.171875 C 144.886719 262.164062 164.683594 254.679688 193.988281 253.898438 Z M 193.988281 253.898438 " fill-opacity="1" fill-rule="nonzero"/><path fill="#cc69bb" d="M 516.648438 112.8125 C 519.300781 114.371094 521.949219 115.929688 524.597656 117.488281 C 522.105469 115.929688 519.457031 114.371094 516.648438 112.8125 Z M 516.648438 112.8125 " fill-opacity="1" fill-rule="nonzero"/><path fill="#cc69bb" d="M 238.257812 113.902344 C 238.878906 113.4375 239.660156 113.125 240.28125 112.65625 C 239.660156 113.125 238.878906 113.4375 238.257812 113.902344 Z M 238.257812 113.902344 " fill-opacity="1" fill-rule="nonzero"/><path fill="#cc69bb" d="M 232.800781 117.023438 C 234.046875 116.242188 235.140625 115.617188 236.386719 114.839844 C 235.140625 115.617188 234.046875 116.242188 232.800781 117.023438 Z M 232.800781 117.023438 " fill-opacity="1" fill-rule="nonzero"/><path fill="#ff66c4" d="M 653.976562 293.964844 C 653.507812 291.78125 652.882812 289.601562 652.417969 287.417969 C 652.882812 289.601562 653.351562 291.78125 653.976562 293.964844 Z M 653.976562 293.964844 " fill-opacity="1" fill-rule="nonzero"/><path fill="#ff66c4" d="M 110.128906 451.578125 C 120.101562 445.964844 125.246094 442.691406 133.976562 443.628906 C 138.964844 444.25 141.769531 445.808594 149.5625 445.964844 C 156.109375 446.121094 160.941406 445.1875 169.046875 443.472656 C 184.011719 440.351562 187.441406 437.859375 194.613281 439.105469 C 200.066406 440.042969 204.277344 442.535156 207.082031 444.40625 C 205.054688 445.1875 202.71875 446.433594 200.066406 447.992188 C 196.636719 450.332031 194.144531 452.667969 192.429688 454.695312 C 192.429688 454.695312 192.898438 455.007812 193.675781 455.632812 C 195.078125 455.164062 196.480469 454.695312 197.886719 454.226562 C 204.277344 452.046875 217.058594 449.082031 242.152344 442.847656 C 321.960938 423.359375 350.796875 418.683594 383.6875 406.054688 C 404.265625 398.105469 414.863281 393.738281 414.863281 393.738281 C 434.191406 385.789062 439.335938 383.292969 450.402344 379.398438 C 455.234375 377.683594 458.820312 376.589844 461.9375 375.8125 C 462.71875 374.566406 463.652344 373.316406 464.585938 371.914062 C 475.1875 356.167969 473.160156 362.09375 491.710938 336.992188 C 499.816406 326.082031 504.179688 319.6875 512.910156 316.414062 C 515.871094 315.324219 518.988281 314.699219 524.132812 312.050781 C 526.003906 311.113281 531.613281 308.152344 538.160156 302.382812 C 542.992188 298.175781 544.550781 295.679688 546.734375 293.34375 C 554.214844 285.859375 562.007812 288.351562 590.691406 284.613281 C 607.371094 282.429688 610.332031 280.871094 618.59375 282.273438 C 627.632812 283.832031 629.816406 286.636719 637.609375 287.886719 C 642.597656 288.664062 647.429688 288.351562 652.417969 287.261719 C 649.300781 275.726562 645.558594 264.65625 641.195312 253.742188 C 638.078125 246.726562 634.960938 239.867188 631.6875 232.855469 C 618.28125 206.195312 600.824219 182.03125 580.089844 160.984375 C 578.375 161.609375 576.503906 162.386719 574.324219 162.855469 C 558.425781 166.128906 546.421875 152.410156 541.589844 156.929688 C 538.472656 159.894531 543.617188 166.128906 540.1875 171.898438 C 536.914062 177.355469 528.964844 176.886719 518.675781 178.445312 C 503.867188 180.628906 506.984375 183.589844 482.511719 190.292969 C 463.964844 195.4375 454.765625 197.933594 446.195312 197.464844 C 438.710938 196.996094 432.476562 195.4375 427.175781 195.75 C 427.023438 196.375 426.710938 196.996094 426.398438 197.464844 C 424.371094 201.675781 421.722656 202.921875 418.136719 206.195312 C 413.617188 210.25 412.214844 213.523438 410.65625 216.953125 C 410.34375 226.929688 414.550781 237.0625 421.253906 240.179688 C 426.242188 242.363281 431.230469 240.023438 433.101562 243.144531 C 434.347656 245.324219 433.257812 248.289062 431.542969 251.875 C 426.085938 263.253906 423.28125 269.332031 415.796875 275.257812 C 408.785156 280.871094 402.550781 282.429688 392.730469 285.078125 C 385.246094 287.105469 379.636719 288.507812 375.269531 286.636719 C 374.492188 287.261719 373.867188 288.042969 373.089844 288.664062 C 364.671875 295.992188 360.460938 299.578125 356.410156 301.136719 C 350.332031 303.320312 347.214844 301.292969 338.171875 300.511719 C 321.960938 299.265625 309.335938 304.097656 303.414062 306.4375 C 297.023438 308.933594 278.941406 315.945312 278.628906 325.925781 C 278.472656 331.226562 283.460938 332.785156 282.992188 338.550781 C 282.371094 344.945312 275.199219 348.996094 267.875 353.207031 C 261.480469 356.792969 254.15625 361 245.117188 359.597656 C 241.996094 359.128906 237.476562 358.351562 234.046875 354.921875 C 232.175781 353.050781 231.710938 351.335938 229.058594 349.152344 C 226.097656 346.660156 223.449219 345.722656 222.203125 345.257812 C 213.941406 341.824219 215.5 332.785156 208.015625 326.546875 C 202.5625 322.027344 195.703125 321.871094 193.832031 321.714844 C 183.234375 321.402344 180.269531 328.261719 167.957031 329.042969 C 161.097656 329.355469 154.085938 327.796875 153.773438 325.613281 C 153.460938 323.273438 160.941406 322.027344 168.738281 314.230469 C 171.230469 311.738281 175.75 307.0625 174.503906 303.941406 C 173.414062 301.449219 169.046875 300.980469 162.191406 300.511719 C 146.914062 299.578125 139.121094 299.109375 134.445312 299.578125 C 116.050781 301.449219 114.804688 305.96875 104.359375 304.566406 C 103.113281 304.410156 101.867188 304.097656 100.929688 303.785156 C 97.191406 322.027344 95.320312 340.734375 95.320312 360.066406 C 95.320312 383.761719 98.28125 406.679688 103.738281 428.660156 C 105.140625 433.492188 106.386719 438.328125 107.789062 443.160156 C 108.257812 445.964844 109.191406 448.773438 110.128906 451.578125 Z M 110.128906 451.578125 " fill-opacity="1" fill-rule="nonzero"/><path fill="#ff66c4" d="M 558.113281 141.03125 C 560.449219 143.054688 562.789062 144.925781 565.125 147.109375 C 562.789062 145.082031 560.449219 143.054688 558.113281 141.03125 Z M 558.113281 141.03125 " fill-opacity="1" fill-rule="nonzero"/><path fill="#ff66c4" d="M 565.90625 147.890625 C 568.246094 149.917969 570.425781 151.941406 572.765625 154.125 C 570.582031 151.941406 568.246094 149.917969 565.90625 147.890625 Z M 565.90625 147.890625 " fill-opacity="1" fill-rule="nonzero"/><path fill="#ff66c4" d="M 298.890625 478.703125 C 302.320312 481.199219 305.4375 483.691406 309.492188 483.226562 C 312.296875 482.914062 314.167969 481.199219 315.726562 479.953125 C 323.832031 473.558594 337.238281 468.882812 346.589844 472.625 C 349.394531 473.714844 351.421875 475.585938 352.203125 476.210938 C 357.34375 481.042969 356.097656 485.253906 360.773438 488.683594 C 363.890625 491.019531 365.449219 489.773438 368.257812 492.421875 C 369.816406 493.980469 370.28125 495.230469 372.464844 499.75 C 376.828125 509.105469 377.296875 508.480469 377.140625 509.726562 C 376.828125 515.339844 369.191406 515.808594 366.386719 523.914062 C 366.230469 524.539062 364.046875 531.085938 366.855469 533.890625 C 370.59375 537.632812 381.351562 533.425781 387.898438 529.058594 C 396.160156 523.601562 396.3125 518.925781 403.484375 517.054688 C 407.691406 515.964844 409.40625 517.054688 414.550781 515.339844 C 419.382812 513.78125 422.035156 511.441406 424.371094 509.726562 C 427.800781 507.390625 430.140625 506.921875 457.105469 503.023438 C 463.027344 502.246094 468.328125 501.464844 475.5 498.972656 C 486.878906 495.230469 487.65625 492.265625 487.8125 491.332031 C 488.4375 487.589844 483.605469 484.003906 481.890625 482.757812 C 476.277344 478.390625 473.160156 480.417969 467.394531 476.367188 C 465.523438 475.117188 464.585938 473.871094 463.808594 472.9375 C 463.027344 473.246094 462.25 473.402344 461.3125 473.714844 C 457.105469 475.117188 455.078125 475.742188 454.300781 475.742188 C 446.816406 475.585938 446.660156 461.710938 435.128906 453.917969 C 427.332031 448.773438 422.191406 451.421875 418.605469 446.121094 C 415.332031 441.289062 416.734375 434.742188 417.980469 430.6875 C 406.601562 433.183594 391.480469 436.613281 368.414062 442.691406 C 355.007812 446.277344 332.40625 452.359375 304.816406 460.777344 C 296.085938 463.425781 287.824219 465.921875 280.03125 468.257812 C 281.277344 468.570312 282.371094 469.039062 283.617188 469.816406 C 293.902344 475.273438 298.890625 478.703125 298.890625 478.703125 Z M 298.890625 478.703125 " fill-opacity="1" fill-rule="nonzero"/><path fill="#ff66c4" d="M 573.234375 154.4375 C 575.570312 156.621094 577.753906 158.800781 579.933594 161.140625 C 577.753906 158.800781 575.570312 156.621094 573.234375 154.4375 Z M 573.234375 154.4375 " fill-opacity="1" fill-rule="nonzero"/><path fill="#ff66c4" d="M 101.242188 301.292969 C 101.242188 300.980469 101.398438 300.824219 101.398438 300.511719 C 101.242188 300.824219 101.242188 300.980469 101.242188 301.292969 Z M 101.242188 301.292969 " fill-opacity="1" fill-rule="nonzero"/><path fill="#ff66c4" d="M 116.828125 469.507812 C 116.984375 469.664062 116.984375 469.972656 117.140625 470.128906 C 117.140625 469.972656 116.984375 469.664062 116.828125 469.507812 Z M 116.828125 469.507812 " fill-opacity="1" fill-rule="nonzero"/><path fill="#ff66c4" d="M 113.554688 461.242188 C 113.867188 462.023438 114.179688 462.804688 114.492188 463.582031 C 114.179688 462.804688 113.867188 462.023438 113.554688 461.242188 Z M 113.554688 461.242188 " fill-opacity="1" fill-rule="nonzero"/><path fill="#ff66c4" d="M 110.59375 452.980469 C 110.90625 454.074219 111.375 455.007812 111.6875 456.097656 C 111.375 455.007812 110.90625 454.074219 110.59375 452.980469 Z M 110.59375 452.980469 " fill-opacity="1" fill-rule="nonzero"/><path fill="#ff66c4" d="M 557.644531 140.71875 C 557.019531 140.25 556.398438 139.78125 555.773438 139.160156 C 555.617188 139.003906 555.617188 139.003906 555.460938 138.847656 C 554.996094 138.535156 554.527344 138.066406 554.058594 137.757812 C 555.308594 138.847656 556.554688 139.78125 557.644531 140.71875 Z M 557.644531 140.71875 " fill-opacity="1" fill-rule="nonzero"/><path fill="#5ddba7" d="M 652.261719 287.417969 C 647.273438 288.507812 642.441406 288.820312 637.453125 288.042969 C 629.660156 286.792969 627.320312 283.988281 618.4375 282.429688 C 610.175781 281.027344 607.367188 282.585938 590.535156 284.765625 C 561.855469 288.507812 554.058594 286.015625 546.578125 293.496094 C 544.394531 295.679688 542.835938 298.175781 538.003906 302.539062 C 531.457031 308.308594 525.847656 311.269531 523.976562 312.207031 C 518.832031 314.855469 515.714844 315.480469 512.753906 316.570312 C 504.023438 319.84375 499.660156 326.390625 491.554688 337.148438 C 472.847656 362.25 474.875 356.480469 464.429688 372.070312 C 463.496094 373.472656 462.5625 374.71875 461.78125 375.96875 C 469.109375 373.941406 473.628906 373.316406 484.070312 370.042969 C 509.011719 362.40625 514.3125 356.480469 546.578125 343.230469 C 564.972656 335.589844 575.570312 332.472656 585.546875 328.886719 C 596.300781 324.988281 626.074219 310.179688 653.976562 293.964844 C 653.351562 291.78125 652.882812 289.601562 652.261719 287.417969 Z M 652.261719 287.417969 " fill-opacity="1" fill-rule="nonzero"/><path fill="#5ddba7" d="M 657.25 370.667969 C 653.039062 365.523438 650.703125 364.898438 648.207031 359.597656 C 646.492188 356.011719 645.714844 352.425781 645.246094 349.308594 C 632.464844 358.195312 619.371094 360.535156 598.171875 365.679688 C 597.394531 375.96875 590.222656 377.996094 590.535156 386.726562 C 590.847656 394.050781 595.835938 393.273438 600.355469 406.523438 C 603.160156 414.785156 602.535156 418.839844 605.964844 420.867188 C 609.863281 423.203125 612.824219 419.308594 620.308594 419.308594 C 628.722656 419.152344 639.011719 423.671875 644 431.3125 C 646.960938 435.988281 646.492188 439.417969 649.300781 443.160156 C 650.078125 440.664062 650.859375 438.171875 651.480469 435.519531 C 651.636719 435.207031 651.636719 434.898438 651.792969 434.585938 C 652.417969 432.246094 653.039062 429.910156 653.664062 427.570312 C 653.664062 427.257812 653.820312 426.945312 653.820312 426.632812 C 654.445312 424.140625 655.066406 421.488281 655.535156 418.996094 C 655.535156 418.996094 655.535156 418.839844 655.535156 418.839844 C 657.25 410.734375 658.652344 402.3125 659.585938 393.894531 C 659.585938 393.738281 659.585938 393.738281 659.585938 393.585938 C 659.898438 390.933594 660.210938 388.285156 660.367188 385.476562 C 660.367188 385.320312 660.367188 385.164062 660.367188 385.007812 C 660.679688 382.203125 660.835938 379.554688 660.992188 376.746094 C 660.367188 375.03125 659.121094 373.003906 657.25 370.667969 Z M 657.25 370.667969 " fill-opacity="1" fill-rule="nonzero"/><path fill="#5ddba7" d="M 592.40625 486.03125 C 591.003906 483.539062 588.195312 478.703125 583.675781 477.925781 C 581.339844 477.613281 580.402344 478.703125 573.542969 480.574219 C 565.75 482.757812 565.4375 482.914062 564.035156 482.914062 C 558.734375 482.601562 558.113281 478.390625 550.628906 474.027344 C 544.238281 470.285156 542.679688 472 535.199219 468.101562 C 527.40625 464.050781 528.496094 461.867188 522.574219 458.90625 C 514.933594 455.007812 507.296875 455.476562 494.046875 456.253906 C 485.164062 456.722656 484.382812 457.8125 477.523438 457.503906 C 477.214844 457.503906 476.902344 457.503906 476.589844 457.503906 C 476.589844 457.347656 476.746094 457.191406 476.746094 457.035156 C 479.394531 451.265625 483.292969 448.304688 490.152344 443.160156 C 509.636719 428.503906 538.785156 431.625 538.785156 428.972656 C 538.785156 427.414062 528.496094 425.386719 519.613281 424.917969 C 512.285156 424.609375 510.257812 425.542969 506.519531 423.671875 C 499.972656 420.554688 501.21875 415.097656 495.605469 412.449219 C 487.8125 408.863281 479.863281 416.8125 476.277344 413.226562 C 476.277344 413.226562 476.121094 413.070312 476.121094 412.914062 C 472.539062 414.628906 468.328125 416.34375 463.496094 418.214844 C 445.570312 425.230469 437.777344 426.480469 417.980469 430.84375 C 416.734375 434.898438 415.332031 441.445312 418.605469 446.277344 C 422.1875 451.578125 427.332031 448.929688 435.128906 454.074219 C 446.816406 461.867188 446.972656 475.742188 454.300781 475.898438 C 454.921875 475.898438 457.105469 475.273438 461.3125 473.871094 C 462.25 473.558594 463.027344 473.246094 463.808594 473.09375 C 464.585938 474.027344 465.523438 475.273438 467.394531 476.523438 C 473.160156 480.730469 476.121094 478.703125 481.890625 482.914062 C 483.761719 484.316406 488.4375 487.902344 487.8125 491.488281 C 487.65625 492.421875 486.878906 495.386719 475.5 499.125 C 468.484375 501.464844 463.027344 502.246094 457.105469 503.179688 C 430.140625 507.078125 427.800781 507.546875 424.371094 509.882812 C 422.035156 511.597656 419.382812 513.9375 414.550781 515.496094 C 409.40625 517.210938 407.539062 516.121094 403.484375 517.210938 C 396.3125 519.082031 396.160156 523.757812 387.898438 529.214844 C 381.351562 533.582031 370.59375 537.789062 366.855469 534.046875 C 363.890625 531.242188 366.074219 524.695312 366.386719 524.070312 C 369.191406 516.121094 376.828125 515.496094 377.140625 509.882812 C 377.140625 508.636719 376.828125 509.261719 372.464844 499.90625 C 370.28125 495.386719 369.816406 494.136719 368.257812 492.578125 C 365.449219 489.929688 363.890625 491.175781 360.773438 488.835938 C 356.097656 485.40625 357.34375 481.199219 352.203125 476.367188 C 351.578125 475.742188 349.550781 473.871094 346.589844 472.78125 C 337.394531 469.039062 323.832031 473.714844 315.726562 480.105469 C 314.167969 481.355469 312.296875 483.070312 309.492188 483.382812 C 305.4375 483.847656 302.320312 481.355469 298.890625 478.859375 C 298.890625 478.859375 293.902344 475.273438 283.773438 469.972656 C 282.523438 469.351562 281.277344 468.882812 280.1875 468.414062 C 229.683594 483.847656 198.039062 493.980469 182.609375 502.558594 C 180.269531 503.804688 173.878906 507.546875 164.527344 509.261719 C 158.449219 510.351562 153.773438 510.039062 144.109375 509.570312 C 141.925781 509.417969 139.742188 509.417969 137.40625 509.261719 C 138.027344 510.351562 138.808594 511.441406 139.585938 512.535156 C 140.054688 513.15625 140.367188 513.78125 140.835938 514.40625 C 141.613281 515.496094 142.238281 516.585938 143.015625 517.679688 C 143.953125 519.082031 144.886719 520.328125 145.824219 521.730469 C 146.601562 522.824219 147.382812 523.914062 148.160156 525.007812 C 149.097656 526.253906 150.03125 527.65625 150.964844 528.902344 C 151.746094 529.996094 152.523438 531.085938 153.304688 532.175781 C 154.238281 533.425781 155.332031 534.671875 156.265625 535.917969 C 157.046875 537.011719 157.980469 537.945312 158.761719 539.035156 C 159.851562 540.285156 160.785156 541.53125 161.878906 542.777344 C 162.8125 543.871094 163.59375 544.804688 164.527344 545.742188 C 165.617188 546.988281 166.710938 548.234375 167.800781 549.324219 C 168.738281 550.261719 169.515625 551.351562 170.449219 552.289062 C 171.542969 553.535156 172.632812 554.625 173.722656 555.875 C 174.660156 556.808594 175.59375 557.746094 176.53125 558.679688 C 177.621094 559.769531 178.867188 561.019531 179.960938 562.109375 C 180.894531 563.046875 181.828125 563.980469 182.765625 564.914062 C 184.011719 566.007812 185.101562 567.097656 186.351562 568.34375 C 186.972656 568.96875 187.597656 569.59375 188.222656 570.058594 C 189.78125 569.90625 191.339844 569.75 193.054688 569.4375 C 198.039062 568.34375 203.183594 566.164062 203.027344 564.761719 C 202.871094 563.355469 198.664062 563.980469 193.675781 561.332031 C 187.753906 558.210938 182.609375 551.664062 184.011719 548.078125 C 184.636719 546.519531 186.039062 546.519531 190.871094 543.714844 C 192.273438 542.933594 194.457031 541.375 199.132812 538.257812 C 213.472656 528.589844 215.03125 524.851562 222.667969 522.042969 C 224.695312 521.265625 229.527344 520.953125 239.035156 520.171875 C 253.066406 518.925781 255.402344 519.859375 262.417969 518.144531 C 272.550781 515.652344 270.367188 513.15625 278.316406 511.910156 C 286.890625 510.507812 289.539062 513.625 306.6875 516.121094 C 308.246094 516.277344 310.113281 516.585938 311.828125 518.144531 C 314.792969 520.640625 314.167969 523.601562 316.660156 526.253906 C 319.3125 528.902344 321.960938 526.875 324.144531 528.746094 C 328.039062 532.175781 326.015625 543.714844 319.933594 551.195312 C 316.816406 555.09375 315.570312 554.316406 308.246094 561.796875 C 301.855469 568.34375 300.917969 570.839844 301.542969 572.710938 C 302.320312 574.894531 305.28125 575.984375 306.0625 576.296875 C 308.402344 577.074219 310.582031 576.917969 312.140625 576.609375 C 317.441406 575.671875 321.492188 572.867188 325.390625 570.214844 C 333.027344 565.070312 336.925781 562.578125 338.484375 562.109375 C 339.417969 561.796875 349.238281 559.148438 356.097656 564.136719 C 358.59375 566.007812 359.683594 568.191406 364.359375 570.996094 C 364.359375 570.996094 366.855469 572.554688 369.660156 573.644531 C 373.402344 575.050781 380.257812 576.453125 394.445312 572.554688 C 400.210938 570.996094 406.289062 569.28125 413.929688 565.070312 C 427.019531 557.746094 429.359375 551.195312 439.023438 550.417969 C 444.167969 549.949219 448.6875 551.351562 450.089844 551.820312 C 456.015625 553.847656 459.289062 557.277344 461.3125 558.992188 C 465.992188 562.578125 474.875 564.761719 493.734375 558.210938 C 486.722656 554.003906 478.929688 548.703125 471.132812 542 C 466.613281 538.257812 462.5625 534.515625 459.132812 530.773438 C 467.394531 528.589844 473.628906 525.941406 477.679688 523.914062 C 488.125 518.769531 488.4375 516.277344 495.292969 514.871094 C 498.722656 514.25 503.554688 513.78125 509.792969 510.976562 C 513.066406 509.417969 514.15625 508.480469 514.625 507.234375 C 516.027344 503.179688 509.945312 499.59375 511.195312 496.476562 C 512.441406 493.203125 520.546875 493.671875 525.066406 493.828125 C 527.714844 493.980469 532.082031 494.136719 537.226562 496.320312 C 541.589844 498.191406 541.277344 499.125 545.019531 500.375 C 550.472656 502.246094 553.28125 500.53125 557.957031 501.464844 C 564.660156 502.710938 568.710938 507.855469 570.269531 509.417969 C 574.167969 513.3125 584.609375 517.679688 611.265625 520.796875 C 612.355469 519.238281 613.292969 517.835938 614.382812 516.277344 C 614.539062 516.121094 614.695312 515.964844 614.695312 515.652344 C 615.628906 514.25 616.566406 512.847656 617.5 511.285156 C 599.730469 498.347656 592.40625 486.03125 592.40625 486.03125 Z M 592.40625 486.03125 " fill-opacity="1" fill-rule="nonzero"/><path fill="#5ddba7" d="M 200.066406 448.148438 C 202.5625 446.433594 205.054688 445.34375 207.082031 444.5625 C 204.433594 442.691406 200.222656 440.199219 194.613281 439.261719 C 187.441406 438.015625 184.011719 440.507812 169.046875 443.628906 C 160.941406 445.34375 156.109375 446.277344 149.5625 446.121094 C 141.613281 445.964844 138.964844 444.40625 133.976562 443.785156 C 125.246094 442.847656 120.101562 445.964844 110.128906 451.734375 C 110.285156 452.203125 110.4375 452.667969 110.59375 453.136719 C 110.90625 454.226562 111.375 455.164062 111.6875 456.253906 C 112.308594 457.96875 112.933594 459.683594 113.554688 461.554688 C 113.867188 462.335938 114.179688 463.113281 114.492188 463.894531 C 115.269531 465.765625 116.050781 467.792969 116.828125 469.664062 C 116.984375 469.816406 116.984375 470.128906 117.140625 470.285156 C 118.234375 472.78125 119.324219 475.273438 120.414062 477.769531 C 125.714844 476.988281 127.117188 476.832031 131.171875 476.054688 C 157.046875 471.53125 169.203125 464.207031 193.675781 455.789062 C 192.898438 455.164062 192.429688 454.851562 192.429688 454.851562 C 194.144531 452.824219 196.636719 450.332031 200.066406 448.148438 Z M 200.066406 448.148438 " fill-opacity="1" fill-rule="nonzero"/><path fill="#5ddba7" d="M 134.289062 299.734375 C 138.964844 299.265625 146.601562 299.734375 162.035156 300.667969 C 168.890625 301.136719 173.414062 301.449219 174.347656 304.097656 C 175.59375 307.21875 171.074219 311.738281 168.582031 314.386719 C 160.941406 322.183594 153.460938 323.429688 153.617188 325.769531 C 153.929688 327.953125 160.941406 329.667969 167.800781 329.199219 C 180.117188 328.574219 183.078125 321.558594 193.675781 321.871094 C 195.703125 321.871094 202.40625 322.183594 207.859375 326.703125 C 215.34375 332.785156 213.785156 341.824219 222.046875 345.410156 C 223.292969 345.878906 225.941406 346.816406 228.902344 349.308594 C 231.554688 351.648438 232.023438 353.207031 233.890625 355.078125 C 237.320312 358.507812 241.84375 359.285156 244.960938 359.753906 C 254 361.15625 261.328125 356.949219 267.71875 353.363281 C 275.042969 349.152344 282.214844 345.101562 282.835938 338.707031 C 283.460938 333.097656 278.316406 331.382812 278.472656 326.082031 C 278.785156 316.101562 296.867188 309.085938 303.257812 306.59375 C 309.179688 304.253906 321.804688 299.421875 338.015625 300.667969 C 347.058594 301.449219 350.175781 303.476562 356.253906 301.292969 C 360.308594 299.734375 364.515625 296.148438 372.933594 288.820312 C 373.710938 288.199219 374.335938 287.574219 375.113281 286.792969 C 379.480469 288.664062 385.246094 287.261719 392.574219 285.234375 C 402.394531 282.742188 408.628906 281.027344 415.644531 275.414062 C 423.125 269.488281 425.929688 263.410156 431.386719 252.027344 C 433.101562 248.445312 434.191406 245.324219 432.945312 243.296875 C 431.074219 240.179688 426.085938 242.519531 421.097656 240.335938 C 414.238281 237.375 410.03125 227.242188 410.5 217.109375 C 411.902344 213.679688 413.460938 210.40625 417.980469 206.351562 C 421.566406 203.078125 424.371094 201.828125 426.242188 197.621094 C 426.554688 197.152344 426.710938 196.53125 427.023438 195.90625 C 432.320312 195.59375 438.554688 197.308594 446.039062 197.621094 C 454.613281 198.089844 463.808594 195.4375 482.355469 190.449219 C 506.828125 183.746094 503.710938 180.785156 518.519531 178.601562 C 528.808594 177.042969 536.601562 177.511719 540.03125 172.054688 C 543.460938 166.285156 538.316406 160.207031 541.433594 157.085938 C 546.265625 152.566406 558.269531 166.285156 574.167969 163.011719 C 576.351562 162.542969 578.375 161.765625 579.933594 161.140625 C 579.933594 161.140625 579.933594 161.140625 579.777344 160.984375 C 577.597656 158.800781 575.257812 156.464844 573.078125 154.28125 C 572.921875 154.125 572.765625 153.96875 572.765625 153.96875 C 570.582031 151.785156 568.246094 149.761719 565.90625 147.734375 C 565.59375 147.421875 565.28125 147.265625 565.125 146.953125 C 562.789062 144.925781 560.449219 142.902344 558.113281 140.875 C 557.957031 140.71875 557.800781 140.71875 557.800781 140.5625 C 556.710938 139.625 555.460938 138.691406 554.214844 137.757812 C 552.96875 136.820312 551.878906 135.886719 550.628906 134.949219 C 550.164062 134.636719 549.695312 134.328125 549.382812 134.015625 C 547.046875 132.300781 544.863281 130.585938 542.523438 128.871094 C 542.371094 128.714844 542.214844 128.714844 542.058594 128.558594 C 539.5625 126.84375 537.070312 125.128906 534.574219 123.414062 C 534.109375 123.101562 533.796875 122.789062 533.328125 122.632812 C 530.835938 121.074219 528.339844 119.515625 525.847656 117.957031 C 525.535156 117.644531 525.066406 117.488281 524.753906 117.175781 C 522.105469 115.617188 519.457031 114.058594 516.804688 112.5 C 505.582031 116.554688 501.6875 121.542969 488.59375 125.90625 C 477.679688 129.492188 468.953125 129.804688 458.976562 130.117188 C 451.648438 130.273438 418.917969 130.742188 379.792969 111.878906 C 362.800781 103.769531 364.515625 101.433594 354.539062 98.78125 C 335.210938 93.949219 326.015625 101.742188 292.34375 107.667969 C 273.171875 111.097656 256.960938 113.746094 243.554688 110.785156 C 242.621094 111.253906 241.53125 111.878906 240.59375 112.5 C 239.972656 112.96875 239.191406 113.28125 238.570312 113.746094 C 237.945312 114.058594 237.320312 114.527344 236.699219 114.839844 C 235.449219 115.460938 234.359375 116.242188 233.113281 117.023438 C 232.800781 117.175781 232.644531 117.332031 232.332031 117.488281 C 229.058594 119.515625 225.785156 121.542969 222.511719 123.726562 C 227.191406 131.050781 232.332031 137.445312 241.0625 143.210938 C 256.804688 153.5 273.484375 155.214844 278.785156 155.839844 C 301.855469 158.023438 314.324219 149.449219 336.769531 156.464844 C 341.445312 158.023438 354.695312 161.765625 355.164062 168.46875 C 355.320312 169.558594 355.007812 170.652344 354.539062 171.742188 C 352.046875 172.675781 350.175781 173.925781 348.773438 175.015625 C 349.550781 175.484375 350.488281 175.949219 351.109375 176.417969 C 346.902344 180.785156 340.355469 184.371094 338.953125 185.148438 C 329.601562 190.292969 323.832031 189.671875 321.960938 194.503906 C 320.402344 198.554688 322.585938 204.324219 326.171875 206.507812 C 329.601562 208.535156 332.40625 205.726562 338.015625 206.351562 C 346.121094 207.128906 351.578125 214.300781 352.355469 215.082031 C 353.605469 216.796875 354.382812 218.355469 354.851562 219.914062 C 353.917969 222.097656 352.203125 224.902344 349.550781 226.617188 C 339.886719 232.855469 327.886719 217.417969 314.792969 222.253906 C 306.375 225.371094 308.246094 233.164062 297.023438 238 C 287.980469 242.050781 278.628906 240.492188 276.914062 240.179688 C 265.535156 238.152344 259.457031 231.140625 256.027344 233.789062 C 254.933594 234.722656 254.46875 236.285156 254.625 240.804688 C 254.78125 246.105469 255.402344 253.589844 257.898438 262.628906 C 230.929688 254.523438 209.109375 253.433594 194.144531 253.742188 C 164.839844 254.523438 145.042969 262.007812 114.648438 256.863281 C 111.0625 265.902344 107.945312 275.257812 105.453125 284.765625 C 104.046875 289.914062 102.800781 295.210938 101.554688 300.511719 C 101.554688 300.824219 101.398438 300.980469 101.398438 301.292969 C 101.242188 302.226562 101.085938 303.007812 100.773438 303.941406 C 101.867188 304.253906 102.957031 304.410156 104.203125 304.722656 C 114.492188 306.125 115.738281 301.605469 134.289062 299.734375 Z M 134.289062 299.734375 " fill-opacity="1" fill-rule="nonzero"/><path fill="#a982c8" d="M 764.957031 235.503906 C 760.59375 224.125 742.355469 221.785156 728.796875 220.070312 C 714.765625 218.355469 716.480469 221.003906 677.355469 222.097656 C 667.382812 222.410156 662.394531 221.785156 655.691406 224.433594 C 651.480469 226.148438 646.492188 229.113281 637.609375 231.449219 C 635.113281 232.074219 632.933594 232.542969 631.6875 232.855469 C 631.6875 232.855469 631.6875 232.855469 631.6875 233.007812 C 634.804688 240.023438 637.921875 246.882812 641.195312 253.898438 C 641.195312 253.898438 641.195312 254.054688 641.195312 254.054688 C 694.347656 241.117188 708.84375 242.832031 710.871094 247.664062 C 714.300781 255.769531 685.308594 275.726562 653.976562 293.964844 C 626.074219 310.179688 596.144531 325.144531 585.546875 328.886719 C 575.570312 332.472656 564.972656 335.589844 546.578125 343.230469 C 514.3125 356.480469 509.011719 362.40625 484.070312 370.042969 C 473.472656 373.316406 469.109375 373.941406 461.78125 375.96875 C 458.664062 376.902344 455.078125 377.996094 450.246094 379.554688 C 439.179688 383.449219 434.035156 385.945312 414.707031 393.894531 C 414.707031 393.894531 403.953125 398.261719 383.53125 406.210938 C 350.644531 418.996094 321.804688 423.515625 241.996094 443.003906 C 216.902344 449.082031 204.277344 452.203125 197.730469 454.382812 C 196.328125 454.851562 194.921875 455.320312 193.519531 455.789062 C 169.203125 464.207031 156.890625 471.378906 131.015625 476.054688 C 126.960938 476.832031 125.558594 476.832031 120.257812 477.769531 C 117.921875 478.082031 114.960938 478.546875 110.59375 479.328125 C 92.046875 482.289062 84.5625 486.8125 71.9375 484.785156 C 66.480469 483.847656 59.625 482.757812 58.53125 479.171875 C 57.128906 474.496094 65.546875 464.984375 107.476562 444.09375 C 107.476562 443.78125 107.320312 443.628906 107.320312 443.316406 C 105.917969 438.484375 104.671875 433.648438 103.269531 428.816406 C 102.800781 427.414062 102.488281 425.855469 102.023438 424.453125 C 83.941406 431.933594 70.847656 439.886719 61.960938 446.121094 C 56.039062 450.175781 54.011719 452.203125 39.828125 462.335938 C 24.863281 472.9375 21.746094 474.808594 18.472656 477.300781 C 18.472656 477.300781 17.226562 478.238281 16.132812 479.171875 C 11.613281 482.914062 0.390625 499.125 3.820312 508.480469 C 9.589844 523.914062 56.039062 519.082031 60.714844 518.613281 C 87.214844 515.652344 95.476562 507.078125 118.390625 508.792969 C 124.625 509.261719 131.015625 509.417969 137.25 509.726562 C 139.433594 509.882812 141.613281 509.882812 143.953125 510.039062 C 153.773438 510.507812 158.292969 510.820312 164.371094 509.726562 C 173.722656 508.011719 180.269531 504.273438 182.453125 503.023438 C 197.886719 494.449219 229.371094 484.316406 280.03125 468.882812 C 287.824219 466.542969 296.085938 464.050781 304.816406 461.398438 C 332.40625 452.980469 355.007812 446.902344 368.414062 443.316406 C 391.636719 437.234375 406.757812 433.804688 417.980469 431.3125 C 437.621094 426.945312 445.570312 425.699219 463.496094 418.683594 C 468.328125 416.8125 472.539062 415.097656 476.121094 413.382812 C 494.359375 405.121094 501.375 399.351562 534.265625 386.878906 C 553.4375 379.554688 564.816406 375.34375 581.648438 370.511719 C 587.574219 368.796875 592.871094 367.394531 597.859375 366.300781 C 619.058594 361 631.996094 358.820312 644.933594 349.933594 C 646.648438 348.6875 648.363281 347.4375 650.078125 345.878906 C 653.976562 342.605469 656.3125 339.957031 660.523438 336.527344 C 662.238281 335.121094 664.109375 333.71875 666.445312 332.003906 C 680.785156 321.871094 689.203125 320.78125 700.269531 314.855469 C 719.132812 304.878906 712.117188 298.175781 736.121094 279.46875 C 748.902344 269.488281 757.632812 265.746094 762.464844 254.054688 C 764.023438 249.847656 767.609375 242.363281 764.957031 235.503906 Z M 764.957031 235.503906 " fill-opacity="1" fill-rule="nonzero"/><g clip-path="url(#faad0683eb)"><path fill="#cc69bb" d="M 186.351562 568.5 C 185.101562 567.410156 184.011719 566.320312 182.765625 565.070312 C 183.855469 566.320312 185.101562 567.410156 186.351562 568.5 Z M 176.53125 558.992188 C 177.621094 560.082031 178.867188 561.328125 179.960938 562.421875 C 178.710938 561.328125 177.621094 560.082031 176.53125 558.992188 Z M 158.761719 539.191406 C 159.851562 540.441406 160.785156 541.6875 161.878906 542.933594 C 160.785156 541.6875 159.851562 540.441406 158.761719 539.191406 Z M 156.265625 536.074219 C 155.332031 534.828125 154.238281 533.582031 153.304688 532.332031 C 154.238281 533.582031 155.332031 534.828125 156.265625 536.074219 Z M 170.296875 552.601562 C 171.386719 553.847656 172.476562 554.9375 173.570312 556.183594 C 172.632812 554.9375 171.386719 553.847656 170.296875 552.601562 Z M 167.644531 549.636719 C 166.554688 548.390625 165.464844 547.300781 164.371094 546.050781 C 165.464844 547.300781 166.554688 548.390625 167.644531 549.636719 Z M 148.003906 525.160156 C 148.941406 526.410156 149.875 527.8125 150.8125 529.058594 C 149.875 527.8125 148.941406 526.566406 148.003906 525.160156 Z M 659.742188 394.050781 C 658.808594 402.46875 657.40625 410.734375 655.691406 418.996094 C 657.40625 410.734375 658.808594 402.46875 659.742188 394.050781 Z M 614.539062 516.898438 C 613.605469 518.457031 612.511719 519.859375 611.421875 521.421875 C 612.511719 519.859375 613.605469 518.300781 614.539062 516.898438 Z M 651.792969 434.585938 C 652.417969 432.246094 653.039062 429.910156 653.664062 427.570312 C 653.039062 430.0625 652.417969 432.402344 651.792969 434.585938 Z M 660.523438 385.789062 C 660.210938 388.441406 660.054688 391.089844 659.742188 393.894531 C 660.054688 391.089844 660.367188 388.441406 660.523438 385.789062 Z M 649.457031 443.160156 C 650.234375 440.664062 651.015625 438.171875 651.636719 435.519531 C 650.859375 438.171875 650.234375 440.664062 649.457031 443.160156 Z M 615.007812 516.277344 C 615.941406 514.871094 616.878906 513.46875 617.8125 511.910156 C 616.878906 513.46875 615.941406 514.871094 615.007812 516.277344 Z M 653.820312 426.632812 C 654.445312 424.140625 655.066406 421.488281 655.535156 418.996094 C 655.066406 421.644531 654.445312 424.140625 653.820312 426.632812 Z M 558.269531 501.933594 C 553.4375 500.996094 550.785156 502.710938 545.332031 500.839844 C 541.746094 499.59375 542.058594 498.503906 537.535156 496.789062 C 532.394531 494.605469 528.027344 494.449219 525.378906 494.292969 C 520.859375 494.136719 512.753906 493.671875 511.507812 496.945312 C 510.257812 500.0625 516.339844 503.648438 514.933594 507.703125 C 514.46875 508.949219 513.375 510.039062 510.101562 511.441406 C 503.867188 514.25 499.035156 514.714844 495.605469 515.339844 C 488.75 516.742188 488.4375 519.238281 477.992188 524.382812 C 473.941406 526.410156 467.703125 529.058594 459.445312 531.242188 C 463.027344 534.828125 467.082031 538.726562 471.445312 542.464844 C 479.394531 549.171875 487.035156 554.46875 494.046875 558.679688 C 475.1875 565.226562 466.300781 563.042969 461.625 559.460938 C 459.601562 557.898438 456.328125 554.316406 450.402344 552.289062 C 449 551.820312 444.480469 550.417969 439.335938 550.886719 C 429.671875 551.664062 427.332031 558.210938 414.238281 565.539062 C 406.757812 569.75 400.523438 571.464844 394.753906 573.023438 C 380.414062 576.917969 373.554688 575.515625 369.972656 574.113281 C 367.320312 573.023438 364.671875 571.464844 364.671875 571.464844 C 359.996094 568.65625 359.058594 566.476562 356.410156 564.605469 C 349.550781 559.613281 339.730469 562.265625 338.796875 562.578125 C 337.238281 563.042969 333.339844 565.539062 325.703125 570.683594 C 321.648438 573.335938 317.753906 575.984375 312.453125 577.074219 C 310.894531 577.386719 308.710938 577.542969 306.375 576.765625 C 305.4375 576.453125 302.476562 575.359375 301.855469 573.179688 C 301.230469 571.308594 302.164062 568.8125 308.554688 562.265625 C 315.882812 554.78125 317.128906 555.40625 320.246094 551.664062 C 326.328125 544.027344 328.351562 532.488281 324.457031 529.214844 C 322.273438 527.34375 319.78125 529.371094 316.972656 526.722656 C 314.480469 524.226562 315.101562 521.109375 312.140625 518.613281 C 310.425781 517.210938 308.402344 516.898438 306.996094 516.585938 C 289.851562 513.9375 287.203125 510.976562 278.628906 512.378906 C 270.835938 513.625 272.859375 516.121094 262.730469 518.613281 C 255.871094 520.328125 253.53125 519.550781 239.347656 520.640625 C 229.839844 521.421875 225.164062 521.886719 222.980469 522.511719 C 215.1875 525.316406 213.785156 529.058594 199.445312 538.726562 C 194.769531 541.84375 192.429688 543.402344 191.183594 544.179688 C 186.351562 546.832031 184.792969 546.832031 184.324219 548.546875 C 182.921875 552.132812 187.910156 558.679688 193.988281 561.796875 C 198.976562 564.449219 203.183594 563.824219 203.339844 565.226562 C 203.496094 566.785156 198.351562 568.96875 193.363281 569.90625 C 191.648438 570.214844 190.089844 570.371094 188.53125 570.527344 C 238.878906 616.050781 305.4375 643.800781 378.699219 643.800781 C 475.34375 643.800781 560.605469 595.316406 611.890625 521.574219 C 585.234375 518.457031 574.792969 514.25 570.894531 510.195312 C 568.867188 508.324219 564.972656 503.179688 558.269531 501.933594 Z M 620.460938 419.308594 C 612.824219 419.464844 610.019531 423.203125 606.121094 420.867188 C 602.535156 418.839844 603.316406 414.785156 600.511719 406.523438 C 595.988281 393.429688 591.003906 394.050781 590.691406 386.726562 C 590.378906 377.996094 597.550781 375.96875 598.328125 365.679688 C 593.339844 366.925781 588.039062 368.328125 582.117188 369.886719 C 565.28125 374.71875 553.902344 378.929688 534.730469 386.257812 C 501.6875 398.730469 494.828125 404.652344 476.589844 412.757812 C 476.589844 412.914062 476.746094 412.914062 476.746094 413.070312 C 480.332031 416.65625 488.28125 408.707031 496.074219 412.292969 C 501.6875 414.941406 500.4375 420.242188 506.984375 423.515625 C 510.726562 425.230469 512.753906 424.296875 520.078125 424.765625 C 528.964844 425.230469 539.25 427.257812 539.25 428.816406 C 539.25 431.46875 510.101562 428.347656 490.617188 443.003906 C 483.605469 448.148438 479.707031 451.109375 477.214844 456.878906 C 477.214844 457.035156 477.058594 457.191406 477.058594 457.347656 C 477.371094 457.347656 477.679688 457.347656 477.992188 457.347656 C 484.851562 457.65625 485.628906 456.566406 494.515625 456.097656 C 507.765625 455.320312 515.402344 454.851562 523.039062 458.75 C 528.964844 461.710938 527.871094 463.894531 535.667969 467.949219 C 543.304688 471.84375 544.707031 470.128906 551.097656 473.871094 C 558.425781 478.390625 559.203125 482.445312 564.503906 482.757812 C 565.90625 482.914062 566.21875 482.601562 574.011719 480.417969 C 580.714844 478.546875 581.804688 477.457031 584.144531 477.769531 C 588.664062 478.390625 591.46875 483.382812 592.871094 485.875 C 592.871094 485.875 600.199219 498.191406 618.125 511.753906 C 631.53125 490.550781 642.285156 467.480469 649.765625 443.003906 C 646.804688 439.105469 647.429688 435.832031 644.46875 431.15625 C 639.167969 423.671875 628.878906 419.152344 620.460938 419.308594 Z M 645.089844 349.308594 C 645.402344 352.425781 646.339844 356.011719 648.050781 359.597656 C 650.703125 364.898438 653.039062 365.679688 657.09375 370.667969 C 658.964844 373.003906 660.210938 375.03125 661.144531 376.902344 C 660.988281 379.710938 660.835938 382.515625 660.523438 385.164062 C 661.300781 376.902344 661.613281 368.640625 661.613281 360.222656 C 661.613281 352.117188 661.300781 344.007812 660.523438 335.902344 C 656.46875 339.332031 654.132812 341.980469 650.078125 345.257812 C 648.519531 346.816406 646.804688 348.0625 645.089844 349.308594 Z M 139.585938 512.691406 C 140.054688 513.3125 140.367188 513.9375 140.835938 514.5625 C 140.367188 513.9375 139.898438 513.3125 139.585938 512.691406 Z M 145.667969 521.886719 C 144.730469 520.484375 143.796875 519.238281 142.859375 517.835938 C 143.953125 519.238281 144.730469 520.640625 145.667969 521.886719 Z M 549.226562 134.171875 C 546.890625 132.457031 544.707031 130.742188 542.371094 129.027344 C 544.707031 130.742188 547.046875 132.457031 549.226562 134.171875 Z M 533.328125 122.945312 C 530.835938 121.386719 528.339844 119.828125 525.847656 118.269531 C 528.339844 119.671875 530.835938 121.230469 533.328125 122.945312 Z M 534.574219 123.726562 C 537.070312 125.441406 539.5625 127 542.058594 128.871094 C 539.5625 127 537.070312 125.441406 534.574219 123.726562 Z M 555.929688 139.316406 C 555.773438 139.160156 555.773438 139.160156 555.617188 139.003906 C 555.617188 139.160156 555.773438 139.160156 555.929688 139.316406 Z M 292.191406 107.980469 C 325.859375 102.054688 335.054688 94.261719 354.382812 99.09375 C 364.359375 101.585938 362.800781 103.925781 379.636719 112.1875 C 418.761719 131.050781 451.492188 130.585938 458.820312 130.429688 C 468.796875 130.117188 477.523438 129.804688 488.4375 126.21875 C 501.53125 121.855469 505.425781 116.867188 516.648438 112.8125 C 475.808594 89.894531 428.582031 76.800781 378.386719 76.800781 C 329.445312 76.800781 283.460938 89.273438 243.246094 111.097656 C 256.804688 114.058594 273.015625 111.410156 292.191406 107.980469 Z M 554.214844 137.910156 C 552.96875 136.976562 551.878906 136.042969 550.628906 135.105469 C 551.722656 136.042969 552.96875 136.976562 554.214844 137.910156 Z M 193.988281 253.898438 C 208.953125 253.433594 230.773438 254.679688 257.742188 262.785156 C 255.246094 253.742188 254.625 246.261719 254.46875 240.960938 C 254.3125 236.4375 254.78125 234.878906 255.871094 233.945312 C 259.300781 231.292969 265.378906 238.308594 276.757812 240.335938 C 278.472656 240.648438 287.824219 242.207031 296.867188 238.152344 C 307.933594 233.164062 306.0625 225.527344 314.636719 222.410156 C 327.730469 217.574219 339.730469 233.007812 349.394531 226.773438 C 352.046875 225.058594 353.761719 222.253906 354.695312 220.070312 C 354.226562 218.511719 353.449219 216.953125 352.203125 215.238281 C 351.578125 214.300781 346.121094 207.285156 337.859375 206.507812 C 332.25 205.882812 329.597656 208.691406 326.015625 206.664062 C 322.429688 204.636719 320.246094 198.867188 321.804688 194.660156 C 323.675781 189.824219 329.445312 190.449219 338.796875 185.304688 C 340.355469 184.523438 346.746094 180.941406 350.953125 176.574219 C 350.175781 176.105469 349.394531 175.640625 348.617188 175.171875 C 350.019531 174.082031 351.890625 172.832031 354.382812 171.898438 C 354.851562 170.804688 355.164062 169.714844 355.007812 168.625 C 354.382812 161.921875 341.289062 158.023438 336.613281 156.621094 C 314.011719 149.605469 301.699219 158.179688 278.628906 155.996094 C 273.328125 155.527344 256.648438 153.8125 240.90625 143.367188 C 232.175781 137.601562 227.035156 131.207031 222.355469 123.882812 C 225.628906 121.699219 228.902344 119.671875 232.175781 117.644531 C 179.179688 149.761719 137.40625 198.710938 114.492188 257.171875 C 144.886719 262.164062 164.683594 254.679688 193.988281 253.898438 Z M 516.648438 112.8125 C 519.300781 114.371094 521.949219 115.929688 524.597656 117.488281 C 522.105469 115.929688 519.457031 114.371094 516.648438 112.8125 Z M 240.28125 112.65625 C 239.660156 113.125 238.878906 113.4375 238.257812 113.902344 C 238.878906 113.4375 239.660156 113.125 240.28125 112.65625 Z M 236.386719 114.839844 C 235.140625 115.460938 234.046875 116.242188 232.800781 117.023438 C 234.046875 116.242188 235.140625 115.617188 236.386719 114.839844 Z M 105.140625 284.765625 Z M 105.140625 284.765625 " fill-opacity="1" fill-rule="nonzero"/></g><path fill="#ff66c4" d="M 652.261719 287.417969 C 652.882812 289.601562 653.351562 291.78125 653.976562 293.964844 C 653.351562 291.78125 652.882812 289.601562 652.261719 287.417969 Z M 110.128906 451.578125 C 120.101562 445.964844 125.246094 442.691406 133.976562 443.628906 C 138.964844 444.25 141.769531 445.808594 149.5625 445.964844 C 156.109375 446.121094 160.941406 445.1875 169.046875 443.472656 C 184.011719 440.351562 187.441406 437.859375 194.613281 439.105469 C 200.066406 440.042969 204.277344 442.535156 207.082031 444.40625 C 205.054688 445.1875 202.71875 446.433594 200.066406 447.992188 C 196.636719 450.332031 194.144531 452.667969 192.429688 454.695312 C 192.429688 454.695312 192.898438 455.007812 193.675781 455.632812 C 195.078125 455.164062 196.480469 454.695312 197.886719 454.226562 C 204.277344 452.046875 217.058594 449.082031 242.152344 442.847656 C 321.960938 423.359375 350.796875 418.683594 383.6875 406.054688 C 404.265625 398.105469 414.863281 393.738281 414.863281 393.738281 C 434.191406 385.789062 439.335938 383.292969 450.402344 379.398438 C 455.234375 377.683594 458.820312 376.589844 461.9375 375.8125 C 462.71875 374.566406 463.652344 373.316406 464.585938 371.914062 C 475.1875 356.167969 473.160156 362.09375 491.710938 336.992188 C 499.816406 326.082031 504.179688 319.6875 512.910156 316.414062 C 515.871094 315.324219 518.988281 314.699219 524.132812 312.050781 C 526.003906 311.113281 531.613281 308.152344 538.160156 302.382812 C 542.992188 298.175781 544.550781 295.679688 546.734375 293.34375 C 554.214844 285.859375 562.007812 288.351562 590.691406 284.613281 C 607.371094 282.429688 610.332031 280.871094 618.59375 282.273438 C 627.632812 283.832031 629.816406 286.636719 637.609375 287.886719 C 642.597656 288.664062 647.429688 288.351562 652.417969 287.261719 C 649.300781 275.726562 645.558594 264.65625 641.195312 253.742188 C 638.078125 246.726562 634.960938 239.867188 631.6875 232.855469 C 618.28125 206.195312 600.824219 182.03125 580.089844 160.984375 C 578.375 161.609375 576.503906 162.386719 574.324219 162.855469 C 558.425781 166.128906 546.421875 152.410156 541.589844 156.929688 C 538.472656 159.894531 543.617188 166.128906 540.1875 171.898438 C 536.914062 177.355469 528.964844 176.886719 518.675781 178.445312 C 503.867188 180.628906 506.984375 183.589844 482.511719 190.292969 C 463.964844 195.4375 454.765625 197.933594 446.195312 197.464844 C 438.710938 196.996094 432.476562 195.4375 427.175781 195.75 C 427.023438 196.375 426.710938 196.996094 426.398438 197.464844 C 424.371094 201.675781 421.722656 202.921875 418.136719 206.195312 C 413.617188 210.25 412.214844 213.523438 410.65625 216.953125 C 410.34375 226.929688 414.550781 237.0625 421.253906 240.179688 C 426.242188 242.363281 431.230469 240.023438 433.101562 243.144531 C 434.347656 245.324219 433.257812 248.289062 431.542969 251.875 C 426.085938 263.253906 423.28125 269.332031 415.796875 275.257812 C 408.785156 280.871094 402.550781 282.429688 392.730469 285.078125 C 385.246094 287.105469 379.636719 288.507812 375.269531 286.636719 C 374.492188 287.261719 373.867188 288.042969 373.089844 288.664062 C 364.671875 295.992188 360.460938 299.578125 356.410156 301.136719 C 350.332031 303.320312 347.214844 301.292969 338.171875 300.511719 C 321.960938 299.265625 309.335938 304.097656 303.414062 306.4375 C 297.023438 308.933594 278.941406 315.945312 278.628906 325.925781 C 278.472656 331.226562 283.460938 332.785156 282.992188 338.550781 C 282.371094 344.945312 275.199219 348.996094 267.875 353.207031 C 261.480469 356.792969 254.15625 361 245.117188 359.597656 C 241.996094 359.128906 237.476562 358.351562 234.046875 354.921875 C 232.175781 353.050781 231.710938 351.335938 229.058594 349.152344 C 226.097656 346.660156 223.449219 345.722656 222.203125 345.257812 C 213.941406 341.824219 215.5 332.785156 208.015625 326.546875 C 202.5625 322.027344 195.703125 321.871094 193.832031 321.714844 C 183.234375 321.402344 180.269531 328.261719 167.957031 329.042969 C 161.097656 329.355469 154.085938 327.796875 153.773438 325.613281 C 153.460938 323.273438 160.941406 322.027344 168.738281 314.230469 C 171.230469 311.738281 175.75 307.0625 174.503906 303.941406 C 173.414062 301.449219 169.046875 300.980469 162.191406 300.511719 C 146.914062 299.578125 139.121094 299.109375 134.445312 299.578125 C 116.050781 301.449219 114.804688 305.96875 104.359375 304.566406 C 103.113281 304.410156 101.867188 304.097656 100.929688 303.785156 C 97.191406 322.027344 95.320312 340.734375 95.320312 360.066406 C 95.320312 383.761719 98.28125 406.679688 103.738281 428.660156 C 105.140625 433.492188 106.386719 438.328125 107.789062 443.160156 C 108.257812 445.964844 109.191406 448.773438 110.128906 451.578125 Z M 565.125 147.109375 C 562.789062 145.082031 560.449219 143.054688 558.113281 141.03125 C 560.449219 143.054688 562.789062 145.082031 565.125 147.109375 Z M 572.765625 154.125 C 570.582031 151.941406 568.246094 149.917969 565.90625 147.890625 C 568.246094 149.917969 570.582031 151.941406 572.765625 154.125 Z M 298.890625 478.703125 C 302.320312 481.199219 305.4375 483.691406 309.492188 483.226562 C 312.296875 482.914062 314.167969 481.199219 315.726562 479.953125 C 323.832031 473.558594 337.238281 468.882812 346.589844 472.625 C 349.394531 473.714844 351.421875 475.585938 352.203125 476.210938 C 357.34375 481.042969 356.097656 485.253906 360.773438 488.683594 C 363.890625 491.019531 365.449219 489.773438 368.257812 492.421875 C 369.816406 493.980469 370.28125 495.230469 372.464844 499.75 C 376.828125 509.105469 377.296875 508.480469 377.140625 509.726562 C 376.828125 515.339844 369.191406 515.808594 366.386719 523.914062 C 366.230469 524.539062 364.046875 531.085938 366.855469 533.890625 C 370.59375 537.632812 381.351562 533.425781 387.898438 529.058594 C 396.160156 523.601562 396.3125 518.925781 403.484375 517.054688 C 407.691406 515.964844 409.40625 517.054688 414.550781 515.339844 C 419.382812 513.78125 422.035156 511.441406 424.371094 509.726562 C 427.800781 507.390625 430.140625 506.921875 457.105469 503.023438 C 463.027344 502.246094 468.328125 501.464844 475.5 498.972656 C 486.878906 495.230469 487.65625 492.265625 487.8125 491.332031 C 488.4375 487.589844 483.605469 484.003906 481.890625 482.757812 C 476.277344 478.390625 473.160156 480.417969 467.394531 476.367188 C 465.523438 475.117188 464.585938 473.871094 463.808594 472.9375 C 463.027344 473.246094 462.25 473.402344 461.3125 473.714844 C 457.105469 475.117188 455.078125 475.742188 454.300781 475.742188 C 446.816406 475.585938 446.660156 461.710938 435.128906 453.917969 C 427.332031 448.773438 422.191406 451.421875 418.605469 446.121094 C 415.332031 441.289062 416.734375 434.742188 417.980469 430.6875 C 406.601562 433.183594 391.480469 436.613281 368.414062 442.691406 C 355.007812 446.277344 332.40625 452.359375 304.816406 460.777344 C 296.085938 463.425781 287.824219 465.921875 280.03125 468.257812 C 281.277344 468.570312 282.371094 469.039062 283.617188 469.816406 C 293.902344 475.273438 298.890625 478.703125 298.890625 478.703125 Z M 579.933594 160.984375 C 577.753906 158.800781 575.414062 156.464844 573.234375 154.28125 C 575.570312 156.621094 577.753906 158.800781 579.933594 160.984375 Z M 101.242188 301.292969 C 101.242188 300.980469 101.398438 300.824219 101.398438 300.511719 C 101.242188 300.824219 101.242188 300.980469 101.242188 301.292969 Z M 117.140625 470.128906 C 116.984375 469.972656 116.984375 469.664062 116.828125 469.507812 C 116.984375 469.664062 117.140625 469.972656 117.140625 470.128906 Z M 114.492188 463.582031 C 114.179688 462.804688 113.867188 462.023438 113.554688 461.242188 C 113.867188 462.023438 114.179688 462.804688 114.492188 463.582031 Z M 111.6875 456.097656 C 111.375 455.007812 110.90625 454.074219 110.59375 452.980469 C 110.90625 454.074219 111.375 455.007812 111.6875 456.097656 Z M 557.644531 140.71875 C 557.019531 140.25 556.398438 139.78125 555.773438 139.160156 C 555.617188 139.003906 555.617188 139.003906 555.460938 138.847656 C 554.996094 138.535156 554.527344 138.066406 554.058594 137.757812 C 555.308594 138.847656 556.554688 139.78125 557.644531 140.71875 Z M 557.644531 140.71875 " fill-opacity="1" fill-rule="nonzero"/><path fill="#5ddba7" d="M 652.261719 287.417969 C 652.882812 289.601562 653.351562 291.78125 653.820312 293.964844 C 625.917969 310.179688 595.988281 325.144531 585.390625 328.886719 C 575.414062 332.472656 564.816406 335.589844 546.421875 343.230469 C 514.15625 356.480469 508.855469 362.40625 483.914062 370.042969 C 473.316406 373.316406 468.953125 373.941406 461.625 375.96875 C 462.40625 374.71875 463.339844 373.472656 464.277344 372.070312 C 474.875 356.324219 472.847656 362.25 491.398438 337.148438 C 499.503906 326.238281 503.867188 319.84375 512.597656 316.570312 C 515.558594 315.480469 518.675781 314.855469 523.820312 312.207031 C 525.691406 311.269531 531.300781 308.308594 537.847656 302.539062 C 542.679688 298.332031 544.238281 295.835938 546.421875 293.496094 C 553.902344 286.015625 561.699219 288.507812 590.378906 284.765625 C 607.058594 282.585938 610.019531 281.027344 618.28125 282.429688 C 627.320312 283.988281 629.503906 286.792969 637.296875 288.042969 C 642.441406 288.820312 647.273438 288.507812 652.261719 287.417969 Z M 657.25 370.667969 C 653.039062 365.523438 650.703125 364.898438 648.207031 359.597656 C 646.492188 356.011719 645.714844 352.425781 645.246094 349.308594 C 632.464844 358.195312 619.371094 360.535156 598.171875 365.679688 C 597.394531 375.96875 590.222656 377.996094 590.535156 386.726562 C 590.847656 394.050781 595.835938 393.273438 600.355469 406.523438 C 603.160156 414.785156 602.535156 418.839844 605.964844 420.867188 C 609.863281 423.203125 612.824219 419.308594 620.308594 419.308594 C 628.722656 419.152344 639.011719 423.671875 644 431.3125 C 646.960938 435.988281 646.492188 439.417969 649.300781 443.160156 C 650.078125 440.664062 650.859375 438.171875 651.480469 435.519531 C 651.636719 435.207031 651.636719 434.898438 651.792969 434.585938 C 652.417969 432.246094 653.039062 429.910156 653.664062 427.570312 C 653.664062 427.257812 653.820312 426.945312 653.820312 426.632812 C 654.445312 424.140625 655.066406 421.488281 655.535156 418.996094 C 655.535156 418.996094 655.535156 418.839844 655.535156 418.839844 C 657.25 410.734375 658.652344 402.3125 659.585938 393.894531 C 659.585938 393.738281 659.585938 393.738281 659.585938 393.585938 C 659.898438 390.933594 660.210938 388.285156 660.367188 385.476562 C 660.367188 385.320312 660.367188 385.164062 660.367188 385.007812 C 660.679688 382.203125 660.835938 379.554688 660.992188 376.746094 C 660.367188 375.03125 659.121094 373.003906 657.25 370.667969 Z M 592.40625 486.03125 C 591.003906 483.539062 588.195312 478.703125 583.675781 477.925781 C 581.339844 477.613281 580.402344 478.703125 573.542969 480.574219 C 565.75 482.757812 565.4375 482.914062 564.035156 482.914062 C 558.734375 482.601562 558.113281 478.390625 550.628906 474.027344 C 544.238281 470.285156 542.679688 472 535.199219 468.101562 C 527.40625 464.050781 528.496094 461.867188 522.574219 458.90625 C 514.933594 455.007812 507.296875 455.476562 494.046875 456.253906 C 485.164062 456.722656 484.382812 457.8125 477.523438 457.503906 C 477.214844 457.503906 476.902344 457.503906 476.589844 457.503906 C 476.589844 457.347656 476.746094 457.191406 476.746094 457.035156 C 479.394531 451.265625 483.292969 448.304688 490.152344 443.160156 C 509.636719 428.503906 538.785156 431.625 538.785156 428.972656 C 538.785156 427.414062 528.496094 425.386719 519.613281 424.917969 C 512.285156 424.609375 510.257812 425.542969 506.519531 423.671875 C 499.972656 420.554688 501.21875 415.097656 495.605469 412.449219 C 487.8125 408.863281 479.863281 416.8125 476.277344 413.226562 C 476.277344 413.226562 476.121094 413.070312 476.121094 412.914062 C 472.539062 414.628906 468.328125 416.34375 463.496094 418.214844 C 445.570312 425.230469 437.777344 426.480469 417.980469 430.84375 C 416.734375 434.898438 415.332031 441.445312 418.605469 446.277344 C 422.1875 451.578125 427.332031 448.929688 435.128906 454.074219 C 446.816406 461.867188 446.972656 475.742188 454.300781 475.898438 C 454.921875 475.898438 457.105469 475.273438 461.3125 473.871094 C 462.25 473.558594 463.027344 473.246094 463.808594 473.09375 C 464.585938 474.027344 465.523438 475.273438 467.394531 476.523438 C 473.160156 480.730469 476.121094 478.703125 481.890625 482.914062 C 483.761719 484.316406 488.4375 487.902344 487.8125 491.488281 C 487.65625 492.421875 486.878906 495.386719 475.5 499.125 C 468.484375 501.464844 463.027344 502.246094 457.105469 503.179688 C 430.140625 507.078125 427.800781 507.546875 424.371094 509.882812 C 422.035156 511.597656 419.382812 513.9375 414.550781 515.496094 C 409.40625 517.210938 407.539062 516.121094 403.484375 517.210938 C 396.3125 519.082031 396.160156 523.757812 387.898438 529.214844 C 381.351562 533.582031 370.59375 537.789062 366.855469 534.046875 C 363.890625 531.242188 366.074219 524.695312 366.386719 524.070312 C 369.191406 516.121094 376.828125 515.496094 377.140625 509.882812 C 377.140625 508.636719 376.828125 509.261719 372.464844 499.90625 C 370.28125 495.386719 369.816406 494.136719 368.257812 492.578125 C 365.449219 489.929688 363.890625 491.175781 360.773438 488.835938 C 356.097656 485.40625 357.34375 481.199219 352.203125 476.367188 C 351.578125 475.742188 349.550781 473.871094 346.589844 472.78125 C 337.394531 469.039062 323.832031 473.714844 315.726562 480.105469 C 314.167969 481.355469 312.296875 483.070312 309.492188 483.382812 C 305.4375 483.847656 302.320312 481.355469 298.890625 478.859375 C 298.890625 478.859375 293.902344 475.273438 283.773438 469.972656 C 282.523438 469.351562 281.277344 468.882812 280.1875 468.414062 C 229.683594 483.847656 198.039062 493.980469 182.609375 502.558594 C 180.269531 503.804688 173.878906 507.546875 164.527344 509.261719 C 158.449219 510.351562 153.773438 510.039062 144.109375 509.570312 C 141.925781 509.417969 139.742188 509.417969 137.40625 509.261719 C 138.027344 510.351562 138.808594 511.441406 139.585938 512.535156 C 140.054688 513.15625 140.367188 513.78125 140.835938 514.40625 C 141.613281 515.496094 142.238281 516.585938 143.015625 517.679688 C 143.953125 519.082031 144.886719 520.328125 145.824219 521.730469 C 146.601562 522.824219 147.382812 523.914062 148.160156 525.007812 C 149.097656 526.253906 150.03125 527.65625 150.964844 528.902344 C 151.746094 529.996094 152.523438 531.085938 153.304688 532.175781 C 154.238281 533.425781 155.332031 534.671875 156.265625 535.917969 C 157.046875 537.011719 157.980469 537.945312 158.761719 539.035156 C 159.851562 540.285156 160.785156 541.53125 161.878906 542.777344 C 162.8125 543.871094 163.59375 544.804688 164.527344 545.742188 C 165.617188 546.988281 166.710938 548.234375 167.800781 549.324219 C 168.738281 550.261719 169.515625 551.351562 170.449219 552.289062 C 171.542969 553.535156 172.632812 554.625 173.722656 555.875 C 174.660156 556.808594 175.59375 557.746094 176.53125 558.679688 C 177.621094 559.769531 178.867188 561.019531 179.960938 562.109375 C 180.894531 563.046875 181.828125 563.980469 182.765625 564.914062 C 184.011719 566.007812 185.101562 567.097656 186.351562 568.34375 C 186.972656 568.96875 187.597656 569.59375 188.222656 570.058594 C 189.78125 569.90625 191.339844 569.75 193.054688 569.4375 C 198.039062 568.34375 203.183594 566.164062 203.027344 564.761719 C 202.871094 563.355469 198.664062 563.980469 193.675781 561.332031 C 187.753906 558.210938 182.609375 551.664062 184.011719 548.078125 C 184.636719 546.519531 186.039062 546.519531 190.871094 543.714844 C 192.273438 542.933594 194.457031 541.375 199.132812 538.257812 C 213.472656 528.589844 215.03125 524.851562 222.667969 522.042969 C 224.695312 521.265625 229.527344 520.953125 239.035156 520.171875 C 253.066406 518.925781 255.402344 519.859375 262.417969 518.144531 C 272.550781 515.652344 270.367188 513.15625 278.316406 511.910156 C 286.890625 510.507812 289.539062 513.625 306.6875 516.121094 C 308.246094 516.277344 310.113281 516.585938 311.828125 518.144531 C 314.792969 520.640625 314.167969 523.601562 316.660156 526.253906 C 319.3125 528.902344 321.960938 526.875 324.144531 528.746094 C 328.039062 532.175781 326.015625 543.714844 319.933594 551.195312 C 316.816406 555.09375 315.570312 554.316406 308.246094 561.796875 C 301.855469 568.34375 300.917969 570.839844 301.542969 572.710938 C 302.320312 574.894531 305.28125 575.984375 306.0625 576.296875 C 308.402344 577.074219 310.582031 576.917969 312.140625 576.609375 C 317.441406 575.671875 321.492188 572.867188 325.390625 570.214844 C 333.027344 565.070312 336.925781 562.578125 338.484375 562.109375 C 339.417969 561.796875 349.238281 559.148438 356.097656 564.136719 C 358.59375 566.007812 359.683594 568.191406 364.359375 570.996094 C 364.359375 570.996094 366.855469 572.554688 369.660156 573.644531 C 373.402344 575.050781 380.257812 576.453125 394.445312 572.554688 C 400.210938 570.996094 406.289062 569.28125 413.929688 565.070312 C 427.019531 557.746094 429.359375 551.195312 439.023438 550.417969 C 444.167969 549.949219 448.6875 551.351562 450.089844 551.820312 C 456.015625 553.847656 459.289062 557.277344 461.3125 558.992188 C 465.992188 562.578125 474.875 564.761719 493.734375 558.210938 C 486.722656 554.003906 478.929688 548.703125 471.132812 542 C 466.613281 538.257812 462.5625 534.515625 459.132812 530.773438 C 467.394531 528.589844 473.628906 525.941406 477.679688 523.914062 C 488.125 518.769531 488.4375 516.277344 495.292969 514.871094 C 498.722656 514.25 503.554688 513.78125 509.792969 510.976562 C 513.066406 509.417969 514.15625 508.480469 514.625 507.234375 C 516.027344 503.179688 509.945312 499.59375 511.195312 496.476562 C 512.441406 493.203125 520.546875 493.671875 525.066406 493.828125 C 527.714844 493.980469 532.082031 494.136719 537.226562 496.320312 C 541.589844 498.191406 541.277344 499.125 545.019531 500.375 C 550.472656 502.246094 553.28125 500.53125 557.957031 501.464844 C 564.660156 502.710938 568.710938 507.855469 570.269531 509.417969 C 574.167969 513.3125 584.609375 517.679688 611.265625 520.796875 C 612.355469 519.238281 613.292969 517.835938 614.382812 516.277344 C 614.539062 516.121094 614.695312 515.964844 614.695312 515.652344 C 615.628906 514.25 616.566406 512.847656 617.5 511.285156 C 599.730469 498.347656 592.40625 486.03125 592.40625 486.03125 Z M 200.066406 448.148438 C 202.5625 446.433594 205.054688 445.34375 207.082031 444.5625 C 204.433594 442.691406 200.222656 440.199219 194.613281 439.261719 C 187.441406 438.015625 184.011719 440.507812 169.046875 443.628906 C 160.941406 445.34375 156.109375 446.277344 149.5625 446.121094 C 141.613281 445.964844 138.964844 444.40625 133.976562 443.785156 C 125.246094 442.847656 120.101562 445.964844 110.128906 451.734375 C 110.285156 452.203125 110.4375 452.667969 110.59375 453.136719 C 110.90625 454.226562 111.375 455.164062 111.6875 456.253906 C 112.308594 457.96875 112.933594 459.683594 113.554688 461.554688 C 113.867188 462.335938 114.179688 463.113281 114.492188 463.894531 C 115.269531 465.765625 116.050781 467.792969 116.828125 469.664062 C 116.984375 469.816406 116.984375 470.128906 117.140625 470.285156 C 118.234375 472.78125 119.324219 475.273438 120.414062 477.769531 C 125.714844 476.988281 127.117188 476.832031 131.171875 476.054688 C 157.046875 471.53125 169.203125 464.207031 193.675781 455.789062 C 192.898438 455.164062 192.429688 454.851562 192.429688 454.851562 C 194.144531 452.824219 196.636719 450.332031 200.066406 448.148438 Z M 134.289062 299.734375 C 138.964844 299.265625 146.601562 299.734375 162.035156 300.667969 C 168.890625 301.136719 173.414062 301.449219 174.347656 304.097656 C 175.59375 307.21875 171.074219 311.738281 168.582031 314.386719 C 160.941406 322.183594 153.460938 323.429688 153.617188 325.769531 C 153.929688 327.953125 160.941406 329.667969 167.800781 329.199219 C 180.117188 328.574219 183.078125 321.558594 193.675781 321.871094 C 195.703125 321.871094 202.40625 322.183594 207.859375 326.703125 C 215.34375 332.785156 213.785156 341.824219 222.046875 345.410156 C 223.292969 345.878906 225.941406 346.816406 228.902344 349.308594 C 231.554688 351.648438 232.023438 353.207031 233.890625 355.078125 C 237.320312 358.507812 241.84375 359.285156 244.960938 359.753906 C 254 361.15625 261.328125 356.949219 267.71875 353.363281 C 275.042969 349.152344 282.214844 345.101562 282.835938 338.707031 C 283.460938 333.097656 278.316406 331.382812 278.472656 326.082031 C 278.785156 316.101562 296.867188 309.085938 303.257812 306.59375 C 309.179688 304.253906 321.804688 299.421875 338.015625 300.667969 C 347.058594 301.449219 350.175781 303.476562 356.253906 301.292969 C 360.308594 299.734375 364.515625 296.148438 372.933594 288.820312 C 373.710938 288.199219 374.335938 287.574219 375.113281 286.792969 C 379.480469 288.664062 385.246094 287.261719 392.574219 285.234375 C 402.394531 282.742188 408.628906 281.027344 415.644531 275.414062 C 423.125 269.488281 425.929688 263.410156 431.386719 252.027344 C 433.101562 248.445312 434.191406 245.324219 432.945312 243.296875 C 431.074219 240.179688 426.085938 242.519531 421.097656 240.335938 C 414.238281 237.375 410.03125 227.242188 410.5 217.109375 C 411.902344 213.679688 413.460938 210.40625 417.980469 206.351562 C 421.566406 203.078125 424.371094 201.828125 426.242188 197.621094 C 426.554688 197.152344 426.710938 196.53125 427.023438 195.90625 C 432.320312 195.59375 438.554688 197.308594 446.039062 197.621094 C 454.613281 198.089844 463.808594 195.4375 482.355469 190.449219 C 506.828125 183.746094 503.710938 180.785156 518.519531 178.601562 C 528.808594 177.042969 536.601562 177.511719 540.03125 172.054688 C 543.460938 166.285156 538.316406 160.207031 541.433594 157.085938 C 546.265625 152.566406 558.269531 166.285156 574.167969 163.011719 C 576.351562 162.542969 578.375 161.765625 579.933594 161.140625 C 579.933594 161.140625 579.933594 161.140625 579.777344 160.984375 C 577.597656 158.800781 575.257812 156.464844 573.078125 154.28125 C 572.921875 154.125 572.765625 153.96875 572.765625 153.96875 C 570.582031 151.785156 568.246094 149.761719 565.90625 147.734375 C 565.59375 147.421875 565.28125 147.265625 565.125 146.953125 C 562.789062 144.925781 560.449219 142.902344 558.113281 140.875 C 557.957031 140.71875 557.800781 140.71875 557.800781 140.5625 C 556.710938 139.625 555.460938 138.691406 554.214844 137.757812 C 552.96875 136.820312 551.878906 135.886719 550.628906 134.949219 C 550.164062 134.636719 549.695312 134.328125 549.382812 134.015625 C 547.046875 132.300781 544.863281 130.585938 542.523438 128.871094 C 542.371094 128.714844 542.214844 128.714844 542.058594 128.558594 C 539.5625 126.84375 537.070312 125.128906 534.574219 123.414062 C 534.109375 123.101562 533.796875 122.789062 533.328125 122.632812 C 530.835938 121.074219 528.339844 119.515625 525.847656 117.957031 C 525.535156 117.644531 525.066406 117.488281 524.753906 117.175781 C 522.105469 115.617188 519.457031 114.058594 516.804688 112.5 C 505.582031 116.554688 501.6875 121.542969 488.59375 125.90625 C 477.679688 129.492188 468.953125 129.804688 458.976562 130.117188 C 451.648438 130.273438 418.917969 130.742188 379.792969 111.878906 C 362.800781 103.769531 364.515625 101.433594 354.539062 98.78125 C 335.210938 93.949219 326.015625 101.742188 292.34375 107.667969 C 273.171875 111.097656 256.960938 113.746094 243.554688 110.785156 C 242.621094 111.253906 241.53125 111.878906 240.59375 112.5 C 239.972656 112.96875 239.191406 113.28125 238.570312 113.746094 C 237.945312 114.058594 237.320312 114.527344 236.699219 114.839844 C 235.449219 115.460938 234.359375 116.242188 233.113281 117.023438 C 232.800781 117.175781 232.644531 117.332031 232.332031 117.488281 C 229.058594 119.515625 225.785156 121.542969 222.511719 123.726562 C 227.191406 131.050781 232.332031 137.445312 241.0625 143.210938 C 256.804688 153.5 273.484375 155.214844 278.785156 155.839844 C 301.855469 158.023438 314.324219 149.449219 336.769531 156.464844 C 341.445312 158.023438 354.695312 161.765625 355.164062 168.46875 C 355.320312 169.558594 355.007812 170.652344 354.539062 171.742188 C 352.046875 172.675781 350.175781 173.925781 348.773438 175.015625 C 349.550781 175.484375 350.488281 175.949219 351.109375 176.417969 C 346.902344 180.785156 340.355469 184.371094 338.953125 185.148438 C 329.601562 190.292969 323.832031 189.671875 321.960938 194.503906 C 320.402344 198.554688 322.585938 204.324219 326.171875 206.507812 C 329.601562 208.535156 332.40625 205.726562 338.015625 206.351562 C 346.121094 207.128906 351.578125 214.300781 352.355469 215.082031 C 353.605469 216.796875 354.382812 218.355469 354.851562 219.914062 C 353.917969 222.097656 352.203125 224.902344 349.550781 226.617188 C 339.886719 232.855469 327.886719 217.417969 314.792969 222.253906 C 306.375 225.371094 308.246094 233.164062 297.023438 238 C 287.980469 242.050781 278.628906 240.492188 276.914062 240.179688 C 265.535156 238.152344 259.457031 231.140625 256.027344 233.789062 C 254.933594 234.722656 254.46875 236.285156 254.625 240.804688 C 254.78125 246.105469 255.402344 253.589844 257.898438 262.628906 C 230.929688 254.523438 209.109375 253.433594 194.144531 253.742188 C 164.839844 254.523438 145.042969 262.007812 114.648438 256.863281 C 111.0625 265.902344 107.945312 275.257812 105.453125 284.765625 C 104.046875 289.914062 102.800781 295.210938 101.554688 300.511719 C 101.554688 300.824219 101.398438 300.980469 101.398438 301.292969 C 101.242188 302.226562 101.085938 303.007812 100.773438 303.941406 C 101.867188 304.253906 102.957031 304.410156 104.203125 304.722656 C 114.492188 306.125 115.738281 301.605469 134.289062 299.734375 Z M 134.289062 299.734375 " fill-opacity="1" fill-rule="nonzero"/><path fill="#a982c8" d="M 762.621094 253.433594 C 757.789062 265.125 749.058594 268.867188 736.277344 278.84375 C 712.273438 297.550781 719.289062 304.253906 700.425781 314.230469 C 689.359375 320.15625 680.941406 321.089844 666.601562 331.382812 C 664.261719 333.097656 662.238281 334.5 660.679688 335.902344 C 656.625 339.332031 654.289062 341.980469 650.234375 345.257812 C 648.519531 346.660156 646.804688 348.0625 645.089844 349.308594 C 632.308594 358.195312 619.214844 360.535156 598.015625 365.679688 C 593.027344 366.925781 587.730469 368.328125 581.804688 369.886719 C 564.972656 374.71875 553.59375 378.929688 534.417969 386.257812 C 501.375 398.730469 494.515625 404.652344 476.277344 412.757812 C 472.691406 414.472656 468.484375 416.1875 463.652344 418.058594 C 445.726562 425.074219 437.933594 426.324219 418.136719 430.6875 C 406.757812 433.183594 391.636719 436.613281 368.570312 442.691406 C 355.164062 446.277344 332.5625 452.359375 304.972656 460.777344 C 296.242188 463.425781 287.980469 465.921875 280.1875 468.257812 C 229.683594 483.691406 198.039062 493.828125 182.609375 502.402344 C 180.269531 503.648438 173.878906 507.390625 164.527344 509.105469 C 158.449219 510.195312 153.773438 509.882812 144.109375 509.417969 C 141.925781 509.261719 139.742188 509.261719 137.40625 509.105469 C 131.171875 508.792969 124.78125 508.636719 118.542969 508.167969 C 95.632812 506.609375 87.371094 515.027344 60.871094 517.992188 C 56.195312 518.457031 9.742188 523.289062 3.976562 507.855469 C 0.546875 498.503906 11.769531 482.289062 16.289062 478.546875 C 17.226562 477.769531 18.628906 476.675781 18.628906 476.675781 C 21.902344 474.183594 25.019531 472.46875 39.984375 461.710938 C 54.167969 451.578125 56.351562 449.550781 62.117188 445.496094 C 71.003906 439.417969 84.097656 431.3125 102.175781 423.828125 C 102.644531 425.230469 102.957031 426.789062 103.425781 428.195312 C 104.828125 433.027344 106.074219 437.859375 107.476562 442.691406 C 107.476562 443.003906 107.632812 443.160156 107.632812 443.472656 C 65.703125 464.828125 57.285156 474.339844 58.6875 479.015625 C 59.78125 482.601562 66.480469 483.691406 72.09375 484.628906 C 84.71875 486.65625 92.203125 482.132812 110.75 479.171875 C 115.117188 478.390625 118.234375 477.925781 120.414062 477.613281 C 125.714844 476.832031 127.117188 476.675781 131.171875 475.898438 C 157.046875 471.378906 169.203125 464.050781 193.675781 455.632812 C 195.078125 455.164062 196.480469 454.695312 197.886719 454.226562 C 204.277344 452.046875 217.058594 449.082031 242.152344 442.847656 C 321.960938 423.359375 350.796875 418.683594 383.6875 406.054688 C 404.265625 398.105469 414.863281 393.738281 414.863281 393.738281 C 434.191406 385.789062 439.335938 383.292969 450.402344 379.398438 C 455.234375 377.683594 458.820312 376.589844 461.9375 375.8125 C 469.265625 373.785156 473.785156 373.160156 484.226562 369.886719 C 509.167969 362.25 514.46875 356.324219 546.734375 343.074219 C 565.125 335.433594 575.726562 332.316406 585.703125 328.730469 C 596.457031 324.832031 626.230469 310.023438 654.132812 293.808594 C 685.460938 275.570312 714.457031 255.613281 711.027344 247.507812 C 709 242.675781 694.503906 240.804688 641.351562 253.898438 C 641.351562 253.898438 641.351562 253.742188 641.351562 253.742188 C 638.230469 246.730469 635.113281 239.867188 631.839844 232.855469 C 631.839844 232.855469 631.839844 232.855469 631.839844 232.699219 C 633.246094 232.386719 635.269531 231.917969 637.765625 231.292969 C 646.648438 228.800781 651.636719 225.992188 655.847656 224.277344 C 662.546875 221.628906 667.535156 222.097656 677.511719 221.941406 C 716.636719 220.847656 715.078125 218.199219 728.953125 219.914062 C 742.355469 221.628906 760.75 223.96875 765.113281 235.347656 C 767.609375 242.363281 764.023438 249.847656 762.621094 253.433594 Z M 762.621094 253.433594 " fill-opacity="1" fill-rule="nonzero"/></svg>