<svg xmlns="http://www.w3.org/2000/svg" xmlns:xlink="http://www.w3.org/1999/xlink" width="400" zoomAndPan="magnify" viewBox="0 0 300 299.999988" height="400" preserveAspectRatio="xMidYMid meet" version="1.0"><defs><g/><clipPath id="e959fe8b9c"><path d="M 1.523438 1.523438 L 298.523438 1.523438 L 298.523438 298.523438 L 1.523438 298.523438 Z M 1.523438 1.523438 " clip-rule="nonzero"/></clipPath></defs><g clip-path="url(#e959fe8b9c)"><path fill="#222222" d="M 298.523438 150.023438 C 298.523438 152.453125 298.460938 154.878906 298.34375 157.308594 C 298.222656 159.734375 298.042969 162.160156 297.804688 164.578125 C 297.566406 166.996094 297.269531 169.40625 296.914062 171.8125 C 296.558594 174.214844 296.140625 176.609375 295.667969 178.992188 C 295.195312 181.375 294.660156 183.746094 294.070312 186.105469 C 293.480469 188.460938 292.832031 190.804688 292.128906 193.128906 C 291.421875 195.453125 290.660156 197.761719 289.839844 200.050781 C 289.023438 202.339844 288.148438 204.605469 287.21875 206.851562 C 286.289062 209.09375 285.304688 211.316406 284.265625 213.511719 C 283.226562 215.710938 282.132812 217.878906 280.988281 220.023438 C 279.839844 222.167969 278.644531 224.28125 277.394531 226.367188 C 276.144531 228.449219 274.84375 230.503906 273.496094 232.523438 C 272.144531 234.542969 270.746094 236.53125 269.296875 238.484375 C 267.851562 240.433594 266.355469 242.351562 264.8125 244.230469 C 263.273438 246.109375 261.683594 247.949219 260.054688 249.75 C 258.421875 251.546875 256.746094 253.308594 255.027344 255.027344 C 253.308594 256.746094 251.546875 258.421875 249.75 260.054688 C 247.949219 261.683594 246.109375 263.273438 244.230469 264.8125 C 242.351562 266.355469 240.433594 267.851562 238.484375 269.296875 C 236.53125 270.746094 234.542969 272.144531 232.523438 273.496094 C 230.503906 274.84375 228.449219 276.144531 226.367188 277.394531 C 224.28125 278.644531 222.167969 279.839844 220.023438 280.988281 C 217.878906 282.132812 215.710938 283.226562 213.511719 284.265625 C 211.316406 285.304688 209.09375 286.289062 206.851562 287.21875 C 204.605469 288.148438 202.335938 289.023438 200.050781 289.839844 C 197.761719 290.660156 195.453125 291.421875 193.128906 292.128906 C 190.804688 292.832031 188.460938 293.480469 186.105469 294.070312 C 183.746094 294.660156 181.375 295.195312 178.992188 295.667969 C 176.609375 296.140625 174.214844 296.558594 171.8125 296.914062 C 169.40625 297.269531 166.996094 297.566406 164.578125 297.804688 C 162.160156 298.042969 159.734375 298.222656 157.308594 298.34375 C 154.878906 298.460938 152.453125 298.523438 150.023438 298.523438 C 147.589844 298.523438 145.164062 298.460938 142.734375 298.34375 C 140.308594 298.222656 137.882812 298.042969 135.464844 297.804688 C 133.046875 297.566406 130.636719 297.269531 128.230469 296.914062 C 125.828125 296.558594 123.433594 296.140625 121.050781 295.667969 C 118.667969 295.195312 116.296875 294.660156 113.9375 294.070312 C 111.582031 293.480469 109.238281 292.832031 106.914062 292.128906 C 104.589844 291.421875 102.28125 290.660156 99.992188 289.839844 C 97.707031 289.023438 95.4375 288.148438 93.191406 287.21875 C 90.949219 286.289062 88.726562 285.304688 86.53125 284.265625 C 84.332031 283.226562 82.164062 282.132812 80.019531 280.988281 C 77.875 279.839844 75.761719 278.644531 73.675781 277.394531 C 71.59375 276.144531 69.539062 274.84375 67.519531 273.496094 C 65.5 272.144531 63.511719 270.746094 61.558594 269.296875 C 59.609375 267.851562 57.691406 266.355469 55.8125 264.8125 C 53.933594 263.273438 52.097656 261.683594 50.296875 260.054688 C 48.496094 258.421875 46.734375 256.746094 45.015625 255.027344 C 43.296875 253.308594 41.621094 251.546875 39.992188 249.746094 C 38.359375 247.949219 36.769531 246.109375 35.230469 244.230469 C 33.6875 242.351562 32.191406 240.433594 30.746094 238.484375 C 29.296875 236.53125 27.898438 234.542969 26.546875 232.523438 C 25.199219 230.503906 23.898438 228.449219 22.648438 226.367188 C 21.398438 224.28125 20.203125 222.167969 19.054688 220.023438 C 17.910156 217.878906 16.816406 215.710938 15.777344 213.511719 C 14.738281 211.316406 13.753906 209.09375 12.824219 206.851562 C 11.894531 204.605469 11.019531 202.339844 10.203125 200.050781 C 9.382812 197.761719 8.621094 195.453125 7.914062 193.128906 C 7.210938 190.804688 6.5625 188.460938 5.972656 186.105469 C 5.382812 183.746094 4.847656 181.375 4.375 178.992188 C 3.902344 176.609375 3.484375 174.214844 3.128906 171.8125 C 2.773438 169.40625 2.476562 166.996094 2.238281 164.578125 C 2 162.160156 1.820312 159.734375 1.699219 157.308594 C 1.582031 154.878906 1.523438 152.453125 1.523438 150.023438 C 1.523438 147.589844 1.582031 145.164062 1.699219 142.734375 C 1.820312 140.308594 2 137.882812 2.238281 135.464844 C 2.476562 133.046875 2.773438 130.636719 3.128906 128.230469 C 3.484375 125.828125 3.902344 123.433594 4.375 121.050781 C 4.847656 118.667969 5.382812 116.296875 5.972656 113.9375 C 6.5625 111.582031 7.210938 109.238281 7.914062 106.914062 C 8.621094 104.589844 9.382812 102.28125 10.203125 99.992188 C 11.019531 97.707031 11.894531 95.4375 12.824219 93.191406 C 13.753906 90.949219 14.738281 88.726562 15.777344 86.53125 C 16.816406 84.332031 17.910156 82.164062 19.054688 80.019531 C 20.203125 77.875 21.398438 75.761719 22.648438 73.675781 C 23.898438 71.59375 25.199219 69.539062 26.546875 67.519531 C 27.898438 65.5 29.296875 63.511719 30.746094 61.558594 C 32.191406 59.609375 33.6875 57.691406 35.230469 55.8125 C 36.769531 53.933594 38.359375 52.097656 39.992188 50.296875 C 41.621094 48.496094 43.296875 46.734375 45.015625 45.015625 C 46.734375 43.296875 48.496094 41.621094 50.296875 39.992188 C 52.097656 38.359375 53.933594 36.769531 55.8125 35.230469 C 57.691406 33.6875 59.609375 32.191406 61.558594 30.746094 C 63.511719 29.296875 65.5 27.898438 67.519531 26.546875 C 69.539062 25.199219 71.59375 23.898438 73.675781 22.648438 C 75.761719 21.398438 77.875 20.203125 80.019531 19.054688 C 82.164062 17.910156 84.332031 16.816406 86.53125 15.777344 C 88.726562 14.738281 90.949219 13.753906 93.191406 12.824219 C 95.4375 11.894531 97.707031 11.019531 99.992188 10.203125 C 102.28125 9.382812 104.589844 8.621094 106.914062 7.914062 C 109.238281 7.210938 111.582031 6.5625 113.9375 5.972656 C 116.296875 5.382812 118.667969 4.847656 121.050781 4.375 C 123.433594 3.902344 125.828125 3.484375 128.230469 3.128906 C 130.636719 2.773438 133.046875 2.476562 135.464844 2.238281 C 137.882812 2 140.308594 1.820312 142.734375 1.699219 C 145.164062 1.582031 147.589844 1.523438 150.023438 1.523438 C 152.453125 1.523438 154.878906 1.582031 157.308594 1.699219 C 159.734375 1.820312 162.160156 2 164.578125 2.238281 C 166.996094 2.476562 169.40625 2.773438 171.8125 3.128906 C 174.214844 3.484375 176.609375 3.902344 178.992188 4.375 C 181.375 4.847656 183.746094 5.382812 186.105469 5.972656 C 188.460938 6.5625 190.804688 7.210938 193.128906 7.914062 C 195.453125 8.621094 197.761719 9.382812 200.050781 10.203125 C 202.339844 11.019531 204.605469 11.894531 206.851562 12.824219 C 209.09375 13.753906 211.316406 14.738281 213.511719 15.777344 C 215.710938 16.816406 217.878906 17.910156 220.023438 19.054688 C 222.167969 20.203125 224.28125 21.398438 226.367188 22.648438 C 228.449219 23.898438 230.503906 25.199219 232.523438 26.546875 C 234.542969 27.898438 236.53125 29.296875 238.484375 30.746094 C 240.433594 32.191406 242.351562 33.6875 244.230469 35.230469 C 246.109375 36.769531 247.949219 38.359375 249.75 39.992188 C 251.546875 41.621094 253.308594 43.296875 255.027344 45.015625 C 256.746094 46.734375 258.421875 48.496094 260.054688 50.296875 C 261.683594 52.097656 263.273438 53.933594 264.8125 55.8125 C 266.355469 57.691406 267.851562 59.609375 269.296875 61.558594 C 270.746094 63.511719 272.144531 65.5 273.496094 67.519531 C 274.84375 69.539062 276.144531 71.59375 277.394531 73.675781 C 278.644531 75.761719 279.839844 77.875 280.988281 80.019531 C 282.132812 82.164062 283.226562 84.332031 284.265625 86.53125 C 285.304688 88.726562 286.289062 90.949219 287.21875 93.191406 C 288.148438 95.4375 289.023438 97.707031 289.839844 99.992188 C 290.660156 102.28125 291.421875 104.589844 292.128906 106.914062 C 292.832031 109.238281 293.480469 111.582031 294.070312 113.9375 C 294.660156 116.296875 295.195312 118.667969 295.667969 121.050781 C 296.140625 123.433594 296.558594 125.828125 296.914062 128.230469 C 297.269531 130.636719 297.566406 133.046875 297.804688 135.464844 C 298.042969 137.882812 298.222656 140.308594 298.34375 142.734375 C 298.460938 145.164062 298.523438 147.589844 298.523438 150.023438 Z M 298.523438 150.023438 " fill-opacity="1" fill-rule="nonzero"/></g><g fill="#5ce1e6" fill-opacity="1"><g transform="translate(23.899226, 211.517142)"><g><path d="M 136.039062 0 L 149.796875 0 L 119.179688 -140.496094 L 75.964844 -27.710938 L 32.75 -140.496094 L 1.9375 0 L 15.890625 0 L 36.238281 -93.792969 L 75.964844 7.75 L 115.496094 -93.792969 Z M 136.039062 0 "/></g></g></g><g fill="#5ce1e6" fill-opacity="1"><g transform="translate(175.634803, 211.517142)"><g><path d="M 28.097656 0 L 28.097656 -61.816406 L 72.476562 0 L 89.917969 0 L 41.46875 -65.886719 L 89.917969 -131.773438 L 72.476562 -131.773438 L 28.097656 -69.761719 L 28.097656 -131.773438 L 14.535156 -131.773438 L 14.535156 0 Z M 28.097656 0 "/></g></g></g><g fill="#ffffff" fill-opacity="1"><g transform="translate(27.732404, 214.629236)"><g><path d="M 136.039062 0 L 149.796875 0 L 119.179688 -140.496094 L 75.964844 -27.710938 L 32.75 -140.496094 L 1.9375 0 L 15.890625 0 L 36.238281 -93.792969 L 75.964844 7.75 L 115.496094 -93.792969 Z M 136.039062 0 "/></g></g></g><g fill="#ffffff" fill-opacity="1"><g transform="translate(179.467981, 214.629236)"><g><path d="M 28.097656 0 L 28.097656 -61.816406 L 72.476562 0 L 89.917969 0 L 41.46875 -65.886719 L 89.917969 -131.773438 L 72.476562 -131.773438 L 28.097656 -69.761719 L 28.097656 -131.773438 L 14.535156 -131.773438 L 14.535156 0 Z M 28.097656 0 "/></g></g></g><g fill="#ff914d" fill-opacity="1"><g transform="translate(32.497005, 217.674282)"><g><path d="M 136.039062 0 L 149.796875 0 L 119.179688 -140.496094 L 75.964844 -27.710938 L 32.75 -140.496094 L 1.9375 0 L 15.890625 0 L 36.238281 -93.792969 L 75.964844 7.75 L 115.496094 -93.792969 Z M 136.039062 0 "/></g></g></g><g fill="#ff914d" fill-opacity="1"><g transform="translate(184.232582, 217.674282)"><g><path d="M 28.097656 0 L 28.097656 -61.816406 L 72.476562 0 L 89.917969 0 L 41.46875 -65.886719 L 89.917969 -131.773438 L 72.476562 -131.773438 L 28.097656 -69.761719 L 28.097656 -131.773438 L 14.535156 -131.773438 L 14.535156 0 Z M 28.097656 0 "/></g></g></g></svg>